<svg width="24" height="24" viewBox="0 0 24 24" fill="none" xmlns="http://www.w3.org/2000/svg">
<g id="Huge-icon/finance and payment/outline/hart-histogram-simple">
<path id="Vector 2181" d="M6 14V18" stroke="white" stroke-width="1.5" stroke-linecap="round" stroke-linejoin="round"/>
<path id="Vector 2182" d="M10 12V18" stroke="white" stroke-width="1.5" stroke-linecap="round" stroke-linejoin="round"/>
<path id="Vector 2183" d="M14 14V18" stroke="white" stroke-width="1.5" stroke-linecap="round" stroke-linejoin="round"/>
<path id="Vector 2184" d="M18 12V18" stroke="white" stroke-width="1.5" stroke-linecap="round" stroke-linejoin="round"/>
<path id="Vector 2185" d="M6 10L8.43826 6.95217C9.23891 5.95136 10.7611 5.95136 11.5617 6.95217L12.4383 8.04783C13.2389 9.04864 14.7611 9.04864 15.5617 8.04783L18 5" stroke="white" stroke-width="1.5" stroke-linecap="round" stroke-linejoin="round"/>
<path id="Vector" d="M2 6C2 3.79086 3.79086 2 6 2H18C20.2091 2 22 3.79086 22 6V18C22 20.2091 20.2091 22 18 22H6C3.79086 22 2 20.2091 2 18V6Z" stroke="white" stroke-width="1.5" stroke-linecap="round"/>
</g>
</svg>
