<svg width="24" height="24" viewBox="0 0 24 24" fill="none" xmlns="http://www.w3.org/2000/svg">
<g id="Huge-icon/business/outline/chart-arrow-up-rectangle">
<path id="Vector" d="M14.3181 8.77239C13.9163 8.87285 13.6719 9.28006 13.7724 9.6819C13.8729 10.0837 14.2801 10.3281 14.6819 10.2276L14.3181 8.77239ZM16.7885 11.2372C16.9195 11.6301 17.3442 11.8425 17.7372 11.7115C18.1301 11.5805 18.3425 11.1558 18.2115 10.7628L16.7885 11.2372ZM17.1272 9.91119L17.5384 9.28396L16.284 8.46158L15.8728 9.08881L17.1272 9.91119ZM13.7644 13.6729L13.1372 13.2617V13.2617L13.7644 13.6729ZM12.0726 13.6424L11.431 14.0308L12.0726 13.6424ZM10.1644 10.4901L9.52284 10.8784H9.52284L10.1644 10.4901ZM8.43044 10.5302L9.08934 10.8885L8.43044 10.5302ZM5.34111 14.6417C5.14324 15.0056 5.27783 15.461 5.64173 15.6589C6.00562 15.8568 6.46103 15.7222 6.65889 15.3583L5.34111 14.6417ZM17.0133 9.53981L16.3018 9.77698L17.0133 9.53981ZM16.9883 9.45997L17.7022 9.23003L16.9883 9.45997ZM16.3806 9.02986L16.5625 9.75746L16.3806 9.02986ZM16.6213 9.01852L16.849 8.30393L16.6213 9.01852ZM6 2.75H18V1.25H6V2.75ZM21.25 6V18H22.75V6H21.25ZM18 21.25H6V22.75H18V21.25ZM2.75 18V6H1.25V18H2.75ZM6 21.25C4.20507 21.25 2.75 19.7949 2.75 18H1.25C1.25 20.6234 3.37665 22.75 6 22.75V21.25ZM21.25 18C21.25 19.7949 19.7949 21.25 18 21.25V22.75C20.6234 22.75 22.75 20.6234 22.75 18H21.25ZM18 2.75C19.7949 2.75 21.25 4.20507 21.25 6H22.75C22.75 3.37665 20.6234 1.25 18 1.25V2.75ZM6 1.25C3.37665 1.25 1.25 3.37665 1.25 6H2.75C2.75 4.20507 4.20507 2.75 6 2.75V1.25ZM14.6819 10.2276L16.5625 9.75746L16.1987 8.30225L14.3181 8.77239L14.6819 10.2276ZM16.3018 9.77698L16.7885 11.2372L18.2115 10.7628L17.7248 9.30264L16.3018 9.77698ZM16.3936 9.73312C16.3383 9.71549 16.3003 9.68897 16.2794 9.67083C16.2598 9.65389 16.2528 9.64246 16.2544 9.64482C16.2556 9.64665 16.2596 9.65328 16.2646 9.66462C16.2695 9.67542 16.2728 9.68496 16.2744 9.68991L17.7022 9.23003C17.6745 9.1441 17.6141 8.97999 17.5017 8.81169C17.3923 8.64791 17.1873 8.41171 16.849 8.30393L16.3936 9.73312ZM15.8728 9.08881L13.1372 13.2617L14.3917 14.084L17.1272 9.91119L15.8728 9.08881ZM12.7142 13.2541L10.8061 10.1017L9.52284 10.8784L11.431 14.0308L12.7142 13.2541ZM7.77155 10.1719L5.34111 14.6417L6.65889 15.3583L9.08934 10.8885L7.77155 10.1719ZM10.8061 10.1017C10.1065 8.946 8.41688 8.98511 7.77155 10.1719L9.08934 10.8885C9.18153 10.7189 9.4229 10.7133 9.52284 10.8784L10.8061 10.1017ZM13.1372 13.2617C13.0363 13.4155 12.8095 13.4114 12.7142 13.2541L11.431 14.0308C12.0978 15.1323 13.6857 15.1609 14.3917 14.084L13.1372 13.2617ZM17.7248 9.30264C17.7101 9.25862 17.729 9.31325 17.7022 9.23003L16.2744 9.68991C16.2765 9.69629 16.2784 9.70267 16.2833 9.71881C16.2875 9.73239 16.294 9.75377 16.3018 9.77698L17.7248 9.30264ZM16.5625 9.75746C16.5943 9.74952 16.5871 9.75287 16.5652 9.75473C16.5395 9.75692 16.4752 9.75913 16.3936 9.73312L16.849 8.30393C16.5467 8.2076 16.2713 8.2841 16.1987 8.30225L16.5625 9.75746Z" fill="white"/>
</g>
</svg>
