<svg xmlns="http://www.w3.org/2000/svg" fill="none" viewBox="0 0 32 32">
  <path fill="currentColor"
    d="M22.192 7.179a.94.94 0 0 0-.953-.929h-2.857a.942.942 0 0 0-.952.929v2.785c0 .511.428.929.952.929h2.857a.942.942 0 0 0 .953-.929V7.18ZM10.763 6.25a.942.942 0 0 0-.952.929v2.785c0 .511.428.929.952.929h2.857a.943.943 0 0 0 .953-.929V7.18a.942.942 0 0 0-.953-.929h-2.857Zm11.429 8.357a.942.942 0 0 0-.953-.928h-2.857a.944.944 0 0 0-.952.928v2.786c0 .51.428.928.952.928h2.857a.942.942 0 0 0 .953-.928v-2.786Zm-11.429-.928a.943.943 0 0 0-.952.928v2.786c0 .51.428.928.952.928h2.857a.943.943 0 0 0 .953-.928v-2.786a.943.943 0 0 0-.953-.928h-2.857ZM27.43 4.857c0-2.051-1.706-3.714-3.81-3.714H8.382c-2.101 0-3.81 1.663-3.81 3.714v22.286c0 2.049 1.709 3.714 3.81 3.714H23.62c2.104 0 3.81-1.665 3.81-3.714V4.857Zm-2.857 0v22.286c0 .51-.427.928-.953.928h-4.762v-3.714c0-1.538-1.28-2.786-2.857-2.786-1.577 0-2.857 1.248-2.857 2.786v3.714H8.382a.944.944 0 0 1-.952-.928V4.857c0-.513.428-.928.952-.928H23.62a.94.94 0 0 1 .953.928Z" />
</svg>