<svg xmlns="http://www.w3.org/2000/svg" fill="none" viewBox="0 0 32 32">
  <path fill="currentColor"
    d="M19.3 14.286c0 1.89-1.481 3.428-3.302 3.428s-3.302-1.537-3.302-3.428 1.48-3.429 3.302-3.429c1.82 0 3.301 1.538 3.301 3.429Zm-1.651 5.143c2.28 0 4.127 1.917 4.127 4.285 0 .472-.372.857-.826.857h-9.904c-.454 0-.826-.385-.826-.857 0-2.368 1.847-4.285 4.127-4.285h3.302ZM15.199 2.59a1.2 1.2 0 0 1 1.598 0l13.62 12c.52.46.588 1.27.144 1.81a1.204 1.204 0 0 1-1.744.15l-1.264-1.114v9.992c0 2.367-1.846 4.285-4.127 4.285H8.57c-2.279 0-4.127-1.918-4.127-4.285v-9.992L3.18 16.552a1.206 1.206 0 0 1-1.745-.15 1.318 1.318 0 0 1 .143-1.811l13.62-12Zm-8.28 10.666v12.171c0 .949.737 1.715 1.65 1.715h14.857c.914 0 1.651-.766 1.651-1.715v-12.17l-9.08-8-9.079 8Z" />
</svg>