<svg xmlns="http://www.w3.org/2000/svg" fill="none" viewBox="0 0 32 32">
  <path fill="currentColor"
    d="M16.003 13.428a4.388 4.388 0 0 0 3.078-1.255 4.252 4.252 0 0 0 1.276-3.03 4.252 4.252 0 0 0-1.276-3.03 4.389 4.389 0 0 0-3.078-1.256 4.39 4.39 0 0 0-3.079 1.255 4.252 4.252 0 0 0-1.275 3.03c0 1.137.459 2.228 1.275 3.031a4.389 4.389 0 0 0 3.079 1.255Zm6.966-4.285a6.803 6.803 0 0 1-2.04 4.848A7.022 7.022 0 0 1 16.003 16a7.022 7.022 0 0 1-4.926-2.008 6.803 6.803 0 0 1-2.04-4.85c0-1.818.734-3.562 2.04-4.848a7.022 7.022 0 0 1 4.926-2.008c1.848 0 3.62.722 4.926 2.008a6.803 6.803 0 0 1 2.04 4.849Zm-7.777 12.386-1.012-1.661c-.348-.573.07-1.297.745-1.297H17.075c.675 0 1.094.729.746 1.297l-1.013 1.66.866 3.172 2.383-4.693a.825.825 0 0 1 .866-.45c4.136.707 7.27 4.248 7.27 8.513 0 .91-.75 1.644-1.67 1.644H5.483c-.92 0-1.67-.74-1.67-1.644 0-4.265 3.134-7.806 7.265-8.513a.821.821 0 0 1 .865.45l2.384 4.693.865-3.171Zm-4.93.916c-1.97.792-3.435 2.566-3.767 4.698h6.15l-2.383-4.698Zm9.099 4.698h6.15c-.332-2.132-1.796-3.906-3.767-4.698l-2.383 4.698Z" />
</svg>