<svg xmlns="http://www.w3.org/2000/svg" fill="none" viewBox="0 0 20 16">
  <path fill="currentColor"
    d="M16.957 1.314c2.258 3.39 3.374 7.214 2.957 11.616a.067.067 0 0 1-.026.047 16.405 16.405 0 0 1-5.002 2.576.062.062 0 0 1-.039 0 .065.065 0 0 1-.031-.025 13.685 13.685 0 0 1-1.021-1.694.066.066 0 0 1 .034-.091c.544-.21 1.062-.461 1.56-.758a.066.066 0 0 0 .006-.109 8.047 8.047 0 0 1-.31-.248.06.06 0 0 0-.066-.008c-3.235 1.524-6.778 1.524-10.051 0a.061.061 0 0 0-.065.009c-.1.084-.205.167-.31.247a.066.066 0 0 0 .007.109c.498.291 1.016.548 1.56.759a.065.065 0 0 1 .034.09c-.294.594-.637 1.16-1.021 1.695a.064.064 0 0 1-.07.024 16.46 16.46 0 0 1-4.994-2.576.07.07 0 0 1-.026-.048C-.266 9.12.444 5.266 3.037 1.313a.059.059 0 0 1 .027-.023A16.213 16.213 0 0 1 7.134 0 .064.064 0 0 1 7.2.033c.177.319.379.728.515 1.062a14.928 14.928 0 0 1 4.572 0c.137-.327.332-.743.507-1.062A.06.06 0 0 1 12.86 0a16.25 16.25 0 0 1 4.07 1.289.05.05 0 0 1 .027.024ZM8.48 8.554c.015-1.126-.789-2.058-1.798-2.058-1 0-1.797.924-1.797 2.058 0 1.133.812 2.056 1.797 2.056 1.001 0 1.798-.923 1.798-2.056Zm6.645 0c.016-1.126-.788-2.058-1.797-2.058-1.001 0-1.798.924-1.798 2.058 0 1.133.812 2.056 1.798 2.056 1.009 0 1.797-.923 1.797-2.056Z" />
</svg>