<svg xmlns="http://www.w3.org/2000/svg" fill="none" viewBox="0 0 19 18">
  <path fill="currentColor"
    d="M6.004 9a3 3 0 1 1 6.002.001A3 3 0 0 1 6.004 9ZM4.381 9a4.623 4.623 0 0 0 4.624 4.621A4.623 4.623 0 0 0 13.63 9a4.623 4.623 0 0 0-4.625-4.621A4.623 4.623 0 0 0 4.381 9Zm8.351-4.805a1.08 1.08 0 0 0 1.845.765 1.08 1.08 0 0 0-.764-1.844 1.081 1.081 0 0 0-1.081 1.08Zm-7.365 12.13c-.878-.04-1.355-.185-1.672-.309a2.8 2.8 0 0 1-1.036-.673 2.777 2.777 0 0 1-.674-1.034c-.123-.317-.27-.794-.31-1.672-.043-.949-.052-1.234-.052-3.637s.01-2.688.053-3.637c.04-.877.187-1.354.31-1.671.163-.42.358-.72.673-1.036.315-.315.615-.51 1.036-.673.317-.123.794-.27 1.672-.31.95-.043 1.235-.052 3.638-.052 2.404 0 2.69.01 3.64.053.878.04 1.354.187 1.672.31.42.162.72.358 1.036.672.315.315.51.615.673 1.036.124.316.27.794.31 1.671.044.95.053 1.234.053 3.637s-.01 2.688-.053 3.637c-.04.878-.187 1.354-.31 1.671-.163.42-.358.72-.673 1.035-.315.315-.616.51-1.036.673-.317.124-.794.27-1.672.31-.95.043-1.235.052-3.64.052-2.404 0-2.689-.009-3.638-.052ZM5.293.056C4.334.098 3.679.25 3.107.473A4.417 4.417 0 0 0 1.512 1.51a4.397 4.397 0 0 0-1.04 1.594C.25 3.677.099 4.33.056 5.289.01 6.25 0 6.556 0 9s.01 2.75.055 3.71c.043.959.195 1.613.418 2.185a4.4 4.4 0 0 0 1.039 1.594c.5.5 1.002.808 1.595 1.038.573.223 1.227.375 2.186.418.96.044 1.267.055 3.712.055 2.446 0 2.753-.01 3.713-.055.959-.043 1.614-.195 2.186-.418a4.43 4.43 0 0 0 1.595-1.038 4.41 4.41 0 0 0 1.039-1.594c.223-.572.375-1.226.418-2.184.044-.96.054-1.267.054-3.711s-.01-2.75-.054-3.71c-.043-.959-.195-1.613-.418-2.185a4.427 4.427 0 0 0-1.039-1.594C16 1.01 15.496.702 14.905.473 14.332.25 13.677.097 12.719.055 11.759.01 11.452 0 9.006 0 6.561 0 6.253.01 5.293.055Z" />
  <path fill="currentColor"
    d="M6.004 9a3 3 0 1 1 6.002.001A3 3 0 0 1 6.004 9ZM4.381 9a4.623 4.623 0 0 0 4.624 4.621A4.623 4.623 0 0 0 13.63 9a4.623 4.623 0 0 0-4.625-4.621A4.623 4.623 0 0 0 4.381 9Zm8.351-4.805a1.08 1.08 0 0 0 1.845.765 1.08 1.08 0 0 0-.764-1.844 1.081 1.081 0 0 0-1.081 1.08Zm-7.365 12.13c-.878-.04-1.355-.185-1.672-.309a2.8 2.8 0 0 1-1.036-.673 2.777 2.777 0 0 1-.674-1.034c-.123-.317-.27-.794-.31-1.672-.043-.949-.052-1.234-.052-3.637s.01-2.688.053-3.637c.04-.877.187-1.354.31-1.671.163-.42.358-.72.673-1.036.315-.315.615-.51 1.036-.673.317-.123.794-.27 1.672-.31.95-.043 1.235-.052 3.638-.052 2.404 0 2.69.01 3.64.053.878.04 1.354.187 1.672.31.42.162.72.358 1.036.672.315.315.51.615.673 1.036.124.316.27.794.31 1.671.044.95.053 1.234.053 3.637s-.01 2.688-.053 3.637c-.04.878-.187 1.354-.31 1.671-.163.42-.358.72-.673 1.035-.315.315-.616.51-1.036.673-.317.124-.794.27-1.672.31-.95.043-1.235.052-3.64.052-2.404 0-2.689-.009-3.638-.052ZM5.293.056C4.334.098 3.679.25 3.107.473A4.417 4.417 0 0 0 1.512 1.51a4.397 4.397 0 0 0-1.04 1.594C.25 3.677.099 4.33.056 5.289.01 6.25 0 6.556 0 9s.01 2.75.055 3.71c.043.959.195 1.613.418 2.185a4.4 4.4 0 0 0 1.039 1.594c.5.5 1.002.808 1.595 1.038.573.223 1.227.375 2.186.418.96.044 1.267.055 3.712.055 2.446 0 2.753-.01 3.713-.055.959-.043 1.614-.195 2.186-.418a4.43 4.43 0 0 0 1.595-1.038 4.41 4.41 0 0 0 1.039-1.594c.223-.572.375-1.226.418-2.184.044-.96.054-1.267.054-3.711s-.01-2.75-.054-3.71c-.043-.959-.195-1.613-.418-2.185a4.427 4.427 0 0 0-1.039-1.594C16 1.01 15.496.702 14.905.473 14.332.25 13.677.097 12.719.055 11.759.01 11.452 0 9.006 0 6.561 0 6.253.01 5.293.055Z" />
</svg>