<svg xmlns="http://www.w3.org/2000/svg" fill="none" viewBox="0 0 20 20">
  <path fill="currentColor"
    d="M4.54 20V6.505H.253V20H4.54ZM2.397 4.663c1.495 0 2.426-1.036 2.426-2.331C4.795 1.007 3.893 0 2.426 0 .958 0 0 1.007 0 2.332c0 1.295.93 2.33 2.37 2.33h.027v.001ZM6.913 20H11.2v-7.536c0-.402.028-.806.142-1.094.31-.806 1.015-1.64 2.2-1.64 1.55 0 2.171 1.237 2.171 3.051V20H20v-7.738c0-4.145-2.115-6.073-4.935-6.073-2.313 0-3.329 1.352-3.893 2.273h.028V6.506H6.913C6.97 7.77 6.913 20 6.913 20Z" />
</svg>