<svg xmlns="http://www.w3.org/2000/svg" fill="none" viewBox="0 0 20 18">
  <path fill="#5E6278" d="M1.226 7.839s8.846-3.951 11.914-5.343C14.315 1.94 18.303.16 18.303.16s1.84-.78 1.687 1.113c-.051.78-.46 3.506-.87 6.456-.613 4.174-1.278 8.737-1.278 8.737s-.102 1.28-.971 1.503c-.87.223-2.3-.78-2.556-1.002-.205-.167-3.835-2.671-5.165-3.896-.358-.334-.767-1.001.051-1.78 1.841-1.837 4.04-4.119 5.37-5.566.613-.668 1.226-2.226-1.33-.334-3.63 2.727-7.21 5.287-7.21 5.287s-.818.557-2.352.056C2.146 10.233.357 9.564.357 9.564s-1.227-.834.87-1.725Z"/>
</svg>
