<svg xmlns="http://www.w3.org/2000/svg" fill="none" viewBox="0 0 21 17">
  <path fill="#5E6278" d="M20.192 2.724c-.629.27-1.29.459-1.967.56.316-.054.782-.623.968-.854a3.62 3.62 0 0 0 .633-1.171c0-.032.031-.077 0-.1a.109.109 0 0 0-.104 0 9.946 9.946 0 0 1-2.329.905.163.163 0 0 1-.163-.041 2.266 2.266 0 0 0-.203-.213 4.241 4.241 0 0 0-1.113-.718 3.911 3.911 0 0 0-1.731-.285 4.192 4.192 0 0 0-1.646.452 4.264 4.264 0 0 0-1.302 1.103 4.179 4.179 0 0 0-.792 1.583 4.347 4.347 0 0 0-.04 1.673c0 .095 0 .108-.082.095-3.224-.475-5.869-1.62-8.03-4.074-.095-.109-.145-.109-.222 0-.94 1.428-.484 3.69.692 4.806.158.15.321.294.493.43a4.038 4.038 0 0 1-1.546-.43c-.09-.059-.14-.027-.145.082-.013.15-.013.301 0 .452a4.106 4.106 0 0 0 2.532 3.273c.164.07.336.124.51.159a4.627 4.627 0 0 1-1.514.045c-.108-.023-.15.036-.108.14.664 1.809 2.107 2.36 3.165 2.668.144.022.29.022.452.059l-.027.027c-.312.57-1.574.954-2.152 1.153a7.737 7.737 0 0 1-3.301.425c-.177-.028-.217-.023-.263 0-.045.022 0 .072.05.117.226.15.452.28.688.407.7.382 1.44.685 2.206.905 3.97 1.094 8.437.289 11.417-2.673 2.342-2.324 3.165-5.53 3.165-8.74 0-.122.15-.194.235-.258a7.762 7.762 0 0 0 1.551-1.619.475.475 0 0 0 .109-.325c0-.068 0-.054-.086-.018Z"/>
</svg>
