<svg xmlns="http://www.w3.org/2000/svg" fill="none" viewBox="0 0 122 24">
  <path fill="#fff"
    d="M.923 13.63c0 .296.131.445.262.592l.13.15c.264.294.524.294.786.294H16.36c.786 0 1.18-.591 1.18-1.332V10.37c0-.147-.263-.592-.394-.592-.261-.297-.523-.297-.786-.297H2.232c-.261 0-.654 0-.917.297l-.13.147a1.22 1.22 0 0 0-.262.742V13.629Z" />
  <path fill="#fff"
    d="M36.636.148c-4.116 0-6.174 2.074-6.174 6.517v10.816c0 4.445 2.196 6.519 6.174 6.519h13.791c3.156 0 5.35-1.481 5.899-5.038l-.137-.146H37.46c-.823 0-1.235-.149-1.509-.444-.137-.15-.274-.593-.274-1.186V6.963c0-.593.137-1.037.274-1.334.274-.147.686-.295 1.508-.295H56.19c.137 0 .137-.149.137-.149C55.778 1.63 53.583.15 50.427.15H36.636Z" />
  <path fill="#fff"
    d="M6.174.148C2.058.148 0 2.222 0 6.665v10.816C0 21.926 2.196 24 6.174 24h13.791c3.156 0 5.351-1.481 5.899-5.038l-.137-.146H6.997c-.823 0-1.235-.149-1.509-.444-.137-.15-.274-.593-.274-1.186V6.963c0-.593.137-1.037.274-1.334.274-.147.686-.295 1.509-.295h18.73c.137 0 .137-.149.137-.149C25.316 1.63 23.121.15 19.965.15H6.174Z" />
  <path fill="#fff"
    d="M102.859 0c-4.254 0-6.858 2.074-6.858 6.815 0 4.74 2.604 6.963 6.858 7.111l11.32.888c.961 0 1.373.298 1.649.594.271.294.409.741.409 1.48 0 1.484-.685 1.78-1.92 1.78-2.881.148-5.348.148-7.819.148H96.134c-.134 0-.134 0-.134.146.134 2.816 2.192 4.89 4.663 4.89h13.791c4.391 0 6.859-1.925 6.859-6.815 0-4.742-2.606-6.963-6.721-7.113l-11.324-.888c-1.098 0-1.508-.295-1.783-.592-.275-.296-.413-.741-.413-1.481 0-.742.276-1.186.413-1.334.275-.295.685-.444 1.645-.444h18.183v-.149c0-2.813-1.921-5.036-4.526-5.036h-13.928Z" />
  <path fill="#fff"
    d="M60.923 22.669c0 .443.137.888.411 1.037.274.146.549.146.685.146h3.293c.137 0 .275 0 .686-.146.274-.149.41-.447.548-.742l1.784-2.816 3.018-5.036 5.075-8.446c0-.147.138-.147.138 0l8.093 13.482 1.097 1.778.686 1.037c0 .149.274.593.685.742.137.146.275.146.55.146h3.292c.137 0 .411 0 .549-.146.41-.149.547-.593.547-1.037 0-.149-.136-.446-.274-.593L79.303 1.185C79.03.592 78.618.148 77.931.148h-3.018c-.137 0-.412.147-.549.295-.411.149-.548.444-.686.594L61.06 21.927c0 .295-.136.444-.136.742Z" />
  <path fill="#007FFF"
    d="m77.207 15.382 3.532 6.572c.475.884-.059 2.046-.94 2.046h-6.995c-.878 0-1.412-1.15-.946-2.035l3.463-6.573c.434-.825 1.444-.831 1.886-.01Z" />
</svg>