<svg width="22" height="20" viewBox="0 0 22 20" fill="none" xmlns="http://www.w3.org/2000/svg">
<g id="Group 1000005385">
<path id="Vector" d="M5.1149 0C1.70497 0 0 1.73849 0 5.46453V14.5336C0 18.2609 1.81946 20 5.1149 20H16.5415C19.1562 20 20.9746 18.7584 21.4286 15.7759L21.3152 15.6532H5.79677C5.11546 15.6532 4.77424 15.5286 4.54695 15.2808C4.43359 15.1557 4.31966 14.7839 4.31966 14.2864V5.7142C4.31966 5.2167 4.31966 4.82258 4.54695 4.59528C4.85652 4.28571 5 4.34807 5.79677 4.34807H21.3152C21.4286 4.34807 21.4286 4.22354 21.4286 4.22354C20.9746 1.24222 19.1562 0.000612168 16.5415 0.000612168L5.1149 0Z" fill="white"/>
<path id="Vector_2" d="M14.5261 10.7005L9.4403 13.4332C8.7561 13.8007 7.85714 13.3877 7.85714 12.7057L7.85714 7.2931C7.85714 6.61402 8.74723 6.20031 9.43231 6.5611L14.5181 9.24092C15.1571 9.5771 15.1615 10.3583 14.5261 10.7005Z" fill="white"/>
</g>
</svg>
