<svg xmlns="http://www.w3.org/2000/svg" fill="none" viewBox="0 0 60 60">
  <path fill="#fff" d="M13.125 7.714c0-.454-.178-.89-.494-1.212A1.674 1.674 0 0 0 11.437 6c-.447 0-.876.18-1.193.502a1.728 1.728 0 0 0-.494 1.212v9.576l-6.257 6.353A1.716 1.716 0 0 0 3 24.857V42c0 .455.178.89.494 1.212.317.322.746.502 1.193.502H9.75v8.572c0 .454.178.89.494 1.212a1.674 1.674 0 0 0 2.386 0c.317-.322.495-.758.495-1.212v-8.572H16.5v8.572c0 .454.178.89.494 1.212a1.674 1.674 0 0 0 2.386 0c.317-.322.495-.758.495-1.212v-8.572h5.063c.447 0 .876-.18 1.193-.502.316-.321.494-.757.494-1.212V24.857a1.737 1.737 0 0 0-.493-1.214l-6.257-6.353V7.714c0-.454-.178-.89-.494-1.212A1.674 1.674 0 0 0 18.187 6c-.447 0-.876.18-1.193.502a1.728 1.728 0 0 0-.494 1.212V18a1.737 1.737 0 0 0 .493 1.214l6.257 6.353v14.719H6.375v-14.72l6.257-6.352A1.716 1.716 0 0 0 13.125 18V7.714Zm33.75 44.572V42a1.737 1.737 0 0 1 .493-1.214l6.257-6.353V19.714H36.75v14.72l6.257 6.352A1.715 1.715 0 0 1 43.5 42v10.286c0 .454-.178.89-.494 1.212a1.674 1.674 0 0 1-1.194.502c-.447 0-.876-.18-1.193-.502a1.728 1.728 0 0 1-.494-1.212V42.71l-6.257-6.353a1.715 1.715 0 0 1-.493-1.214V18c0-.455.178-.89.494-1.212a1.674 1.674 0 0 1 1.194-.502h1.687V7.714c0-.454.178-.89.494-1.212A1.674 1.674 0 0 1 38.438 6h13.5c.447 0 .876.18 1.193.502.316.322.494.758.494 1.212v8.572h1.688c.447 0 .876.18 1.193.502.316.321.494.757.494 1.212v17.143a1.737 1.737 0 0 1-.493 1.214L50.25 42.71v9.576c0 .454-.178.89-.494 1.212a1.674 1.674 0 0 1-1.194.502c-.447 0-.876-.18-1.193-.502a1.728 1.728 0 0 1-.494-1.212Zm-6.75-36H50.25V9.429H40.125v6.857Z"/>
</svg>
