<svg xmlns="http://www.w3.org/2000/svg" fill="none" viewBox="0 0 60 60">
  <path fill="#fff" d="M6 5.678C6 4.198 7.187 3 8.648 3h42.704c.7.005 1.37.289 1.866.79.496.5.776 1.18.782 1.888v48.644c0 .71-.28 1.392-.776 1.894a2.632 2.632 0 0 1-1.872.784H8.648a2.65 2.65 0 0 1-1.866-.79A2.717 2.717 0 0 1 6 54.322V5.678ZM50.667 28.3V6.4H9.333v21.9h41.334Zm0 3.4H9.333v21.9h41.334V31.7Z"/>
  <path fill="#fff" d="M37 15H23a1 1 0 0 0-1 1v2a1 1 0 0 0 1 1h14a1 1 0 0 0 1-1v-2a1 1 0 0 0-1-1Z"/>
  <path fill="#fff" d="M37 40H23a1 1 0 0 0-1 1v2a1 1 0 0 0 1 1h14a1 1 0 0 0 1-1v-2a1 1 0 0 0-1-1Z"/>
</svg>
