<svg xmlns="http://www.w3.org/2000/svg" fill="none" viewBox="0 0 60 60">
  <path fill="#fff" d="M32.165 8.583a1.569 1.569 0 0 1-.444 1.096c-.14.146-.308.263-.492.344a1.524 1.524 0 0 1-.58.132 1.486 1.486 0 0 1-1.074-.423 1.486 1.486 0 0 1-.33-.49 1.527 1.527 0 0 1-.115-.584l-.013-5.141c.015-.397.18-.777.463-1.06A1.55 1.55 0 0 1 30.634 2c.393-.01.771.135 1.055.403.284.268.45.64.467 1.036l.021 5.132-.012.012Z"/>
  <path fill="#fff" d="M29.37 18.77a1.111 1.111 0 0 0-.448.087v.004c-2.976.912-4.724 2.365-5.76 4.3-.995 1.866-1.271 4.107-1.342 6.724a1.067 1.067 0 0 0 .301.772 1.095 1.095 0 0 0 .767.336 1.106 1.106 0 0 0 .782-.298 1.08 1.08 0 0 0 .34-.756c.063-2.324.293-4.272 1.095-5.779.765-1.427 2.116-2.521 4.46-3.24a1.108 1.108 0 0 0 .731-.507 1.076 1.076 0 0 0-.48-1.541 1.112 1.112 0 0 0-.446-.101Z"/>
  <path fill="#fff" fill-rule="evenodd" d="M43.154 37.43V26.95c0-6.706-3.403-10.998-7.758-12.897a13.523 13.523 0 0 0-10.71 0c-4.355 1.899-7.758 6.203-7.758 12.898V37.43H13.4a.888.888 0 0 0-.623.255.865.865 0 0 0-.259.616v7.762c0 .23.093.452.258.616.166.163.39.255.624.255h6.952V56.6c.002.369.151.723.416.984.264.26.622.408.997.41h1.32c.374 0 .731-.147.995-.408.264-.26.413-.614.414-.982v-9.667h11.094v9.667c.001.37.15.724.415.985s.623.409.998.41h1.32c.374-.001.732-.148.996-.409.264-.26.412-.614.413-.982v-9.667h6.956a.887.887 0 0 0 .621-.257.865.865 0 0 0 .257-.614v-7.77a.865.865 0 0 0-.257-.615.888.888 0 0 0-.62-.256h-3.533ZM15.278 40.5h29.526V44H15.278v-3.5Zm24.66-13.566V37.43h-19.82V27.7c0-5.7 1.837-9.122 5.442-10.674a11.3 11.3 0 0 1 8.937 0C38.113 18.6 39.94 22 39.94 26.934Z" clip-rule="evenodd"/>
  <path fill="#fff" d="M14.698 21.233c-.2-.352-.533-.611-.926-.72L7.958 18.86a1.557 1.557 0 0 0-1.17.137 1.523 1.523 0 0 0-.73.914 1.503 1.503 0 0 0 .528 1.606c.16.124.341.215.536.27l5.814 1.65c.393.11.814.06 1.17-.136.357-.197.62-.526.73-.914.11-.388.061-.804-.138-1.155Z"/>
  <path fill="#fff" d="M45.98 23.302c.356.197.777.246 1.17.136h-.004l5.819-1.65c.37-.128.679-.39.86-.735.182-.344.224-.744.117-1.117a1.526 1.526 0 0 0-.69-.893 1.559 1.559 0 0 0-1.123-.182l-5.815 1.651c-.393.11-.726.369-.925.72-.2.352-.25.768-.139 1.156.111.388.374.717.73.914Z"/>
  <path fill="#fff" d="M19.47 10.79a1.517 1.517 0 0 0-.326-.496h-.005l-3.49-3.562a1.549 1.549 0 0 0-2.133.012 1.507 1.507 0 0 0-.07 2.105l3.495 3.558a1.538 1.538 0 0 0 1.079.46 1.553 1.553 0 0 0 1.092-.43 1.517 1.517 0 0 0 .466-1.065c.003-.2-.034-.397-.109-.582Z"/>
  <path fill="#fff" d="M42.572 12.828c.186-.078.353-.192.494-.335h.017l3.574-3.644a1.507 1.507 0 0 0-.07-2.105 1.549 1.549 0 0 0-2.133-.012l-3.587 3.644a1.514 1.514 0 0 0-.436 1.078 1.5 1.5 0 0 0 .464 1.066 1.537 1.537 0 0 0 1.091.43c.202-.002.4-.043.586-.122Z"/>
</svg>
