<svg xmlns="http://www.w3.org/2000/svg" fill="none" viewBox="0 0 60 60">
  <path fill="#fff" d="M6.737 26.294c-.776 0-1.425-.254-1.949-.762C4.263 25.025 4 24.397 4 23.647s.263-1.38.788-1.887c.524-.507 1.173-.76 1.949-.76h46.526c.776 0 1.425.253 1.949.76.525.508.788 1.137.788 1.887s-.263 1.378-.788 1.885c-.524.508-1.173.762-1.949.762H6.737Zm0 12.706c-.776 0-1.425-.254-1.949-.762C4.263 37.73 4 37.103 4 36.353s.263-1.38.788-1.887c.524-.507 1.173-.76 1.949-.76h8.279c.775 0 1.414.253 1.916.76.501.508.752 1.137.752 1.887s-.262 1.378-.785 1.885c-.526.508-1.176.762-1.952.762h-8.21Zm19.158 0c-.776 0-1.425-.254-1.949-.762-.525-.507-.788-1.135-.788-1.885s.263-1.38.788-1.887c.524-.507 1.173-.76 1.949-.76h8.21c.776 0 1.426.253 1.952.76.523.508.785 1.137.785 1.887s-.262 1.378-.785 1.885c-.526.508-1.176.762-1.952.762h-8.21Zm19.09 0c-.776 0-1.415-.254-1.917-.762-.501-.507-.752-1.135-.752-1.885s.262-1.38.788-1.887c.524-.507 1.173-.76 1.949-.76h8.21c.776 0 1.425.253 1.949.76.525.508.788 1.137.788 1.887s-.263 1.378-.788 1.885c-.524.508-1.173.762-1.949.762h-8.279Z"/>
</svg>
