<svg xmlns="http://www.w3.org/2000/svg" fill="none" viewBox="0 0 60 60">
  <path fill="#fff" d="M27.146 41.448c-.5-.87-1.654-1.076-2.363-.367l-8.57 8.582c-1.406 1.407-3.642 1.762-5.293.655-2.22-1.488-2.437-4.57-.652-6.371L22.885 31.31a1.497 1.497 0 0 0-.002-2.118c-.586-.578-1.531-.578-2.195.004L8.079 41.823c-2.772 2.776-2.772 7.299 0 10.077 1.558 1.573 3.738 2.316 5.98 2.022 1.632-.213 3.115-1.065 4.278-2.23l8.475-8.486c.457-.457.591-1.173.267-1.733.076-.006.067-.016.067-.025Zm3.248-27.133c.44-.733.969-1.42 1.59-2.044 2.129-2.12 4.925-3.268 7.85-3.268.643 0 1.287.058 1.93.164l-6.482 6.513 1.287 7.779 7.78 1.289 6.493-6.49a11.103 11.103 0 0 1-3.1 9.796c-.415.416-.862.79-1.332 1.125-.728.518-.771 1.592-.138 2.222a1.534 1.534 0 0 0 1.972.15c.566-.411 1.106-.871 1.616-1.389 3.533-3.537 4.925-8.563 3.708-13.424-.21-.89-.9-1.592-1.79-1.839a2.548 2.548 0 0 0-2.491.656l-5.978 5.987-4.145-.699-.69-4.136 5.979-5.997c.643-.645.9-1.593.655-2.484a2.558 2.558 0 0 0-1.85-1.792c-4.83-1.207-9.846.176-13.393 3.713a13.256 13.256 0 0 0-1.964 2.568c-.355.597-.286 1.354.205 1.845.669.672 1.801.565 2.288-.245ZM11.982 46.491c0 .82.68 1.416 1.498 1.416.82 0 1.413-.68 1.413-1.416 0-.736-.678-1.415-1.413-1.415s-1.498.59-1.498 1.415Zm41.138-3.984-11.644-11.67a7.46 7.46 0 0 0-5.3-2.192c-1.439 0-2.89.41-4.13 1.242l-8.082-8.013v-6.876L12.067 6l-5.99 5.919 8.985 11.915 6.868-.003 8.003 8.013a7.508 7.508 0 0 0 .959 9.44l11.653 11.67C43.115 53.7 43.807 54 44.66 54c.76 0 1.532-.293 2.106-.879l6.28-6.373a2.937 2.937 0 0 0 .075-4.24ZM20.968 20.918H16.56l-6.53-8.635 2.233-2.32 8.621 6.537v4.418h.084ZM44.65 50.991 33.005 39.32a4.463 4.463 0 0 1-1.321-3.175c0-1.208.468-2.332 1.321-3.175a4.41 4.41 0 0 1 3.172-1.324c1.193 0 2.328.468 3.17 1.324L51 44.622l-6.35 6.369Z"/>
</svg>
