<svg viewBox="0 0 20 20" fill="none" xmlns="http://www.w3.org/2000/svg">
  <path
    d="M2.5 15.0013H1.75H2.5ZM2.5 5.0013H3.25H2.5ZM5.83333 1.66797V0.917969V1.66797ZM14.1667 1.66797V0.917969V1.66797ZM17.5 5.0013H16.75H17.5ZM17.5 10.2873H18.25H17.5ZM9.45262 18.3346V17.5846V18.3346ZM5.83333 18.3346V19.0846V18.3346ZM16.5237 12.6443L15.9934 12.1139L16.5237 12.6443ZM11.8096 17.3583L12.34 17.8887H12.34L11.8096 17.3583ZM10.8333 15.0013H11.5833H10.8333ZM14.1667 11.668V10.918V11.668ZM13.0303 8.03163C13.3232 7.73874 13.3232 7.26387 13.0303 6.97097C12.7374 6.67808 12.2626 6.67808 11.9697 6.97097L13.0303 8.03163ZM11.1785 8.82279L10.6482 8.29246L11.1785 8.82279ZM8.82149 8.82279L9.35182 8.29246H9.35182L8.82149 8.82279ZM8.03033 6.97097C7.73744 6.67808 7.26256 6.67808 6.96967 6.97097C6.67678 7.26386 6.67678 7.73874 6.96967 8.03163L8.03033 6.97097ZM9.25 9.16797C9.25 9.58218 9.58579 9.91797 10 9.91797C10.4142 9.91797 10.75 9.58218 10.75 9.16797H9.25ZM10.75 5.0013C10.75 4.58709 10.4142 4.2513 10 4.2513C9.58579 4.2513 9.25 4.58709 9.25 5.0013H10.75ZM3.25 15.0013L3.25 5.0013H1.75L1.75 15.0013H3.25ZM5.83333 2.41797L14.1667 2.41797V0.917969L5.83333 0.917969V2.41797ZM16.75 5.0013V10.2873H18.25V5.0013H16.75ZM9.45262 17.5846H5.83333V19.0846H9.45262V17.5846ZM15.9934 12.1139L11.2793 16.828L12.34 17.8887L17.054 13.1746L15.9934 12.1139ZM9.45262 19.0846C10.5356 19.0846 11.5742 18.6544 12.34 17.8887L11.2793 16.828C10.7948 17.3125 10.1378 17.5846 9.45262 17.5846V19.0846ZM16.75 10.2873C16.75 10.9724 16.4778 11.6295 15.9934 12.1139L17.054 13.1746C17.8198 12.4088 18.25 11.3702 18.25 10.2873H16.75ZM3.25 5.0013C3.25 3.57457 4.4066 2.41797 5.83333 2.41797V0.917969C3.57817 0.917969 1.75 2.74614 1.75 5.0013H3.25ZM1.75 15.0013C1.75 17.2565 3.57817 19.0846 5.83333 19.0846V17.5846C4.4066 17.5846 3.25 16.428 3.25 15.0013H1.75ZM14.1667 2.41797C15.5934 2.41797 16.75 3.57457 16.75 5.0013H18.25C18.25 2.74614 16.4218 0.917969 14.1667 0.917969V2.41797ZM11.5833 18.3346L11.5833 15.0013H10.0833L10.0833 18.3346H11.5833ZM14.1667 12.418L17.5 12.418L17.5 10.918L14.1667 10.918V12.418ZM11.5833 15.0013C11.5833 13.5746 12.7399 12.418 14.1667 12.418V10.918C11.9115 10.918 10.0833 12.7461 10.0833 15.0013H11.5833ZM11.9697 6.97097L10.6482 8.29246L11.7088 9.35312L13.0303 8.03163L11.9697 6.97097ZM9.35182 8.29246L8.03033 6.97097L6.96967 8.03163L8.29116 9.35312L9.35182 8.29246ZM10.75 9.16797V5.0013H9.25V9.16797H10.75ZM10.6482 8.29246C10.2902 8.65044 9.7098 8.65044 9.35182 8.29246L8.29116 9.35312C9.23493 10.2969 10.7651 10.2969 11.7088 9.35312L10.6482 8.29246Z"
    fill="currentColor" />
</svg>