<svg width="52" height="52" viewBox="0 0 52 52" fill="none" xmlns="http://www.w3.org/2000/svg">
<path d="M19.5026 47.6673H32.5026C43.3359 47.6673 47.6693 43.334 47.6693 32.5007V19.5007C47.6693 8.66732 43.3359 4.33398 32.5026 4.33398H19.5026C8.66927 4.33398 4.33594 8.66732 4.33594 19.5007V32.5007C4.33594 43.334 8.66927 47.6673 19.5026 47.6673Z" stroke="#BDBDBD" stroke-width="2" stroke-linecap="round" stroke-linejoin="round"/>
<path d="M15.1641 18.959C17.3307 16.7923 20.8624 16.7923 23.0507 18.959" stroke="#BDBDBD" stroke-width="2" stroke-miterlimit="10" stroke-linecap="round" stroke-linejoin="round"/>
<path d="M28.9453 18.959C31.112 16.7923 34.6436 16.7923 36.832 18.959" stroke="#BDBDBD" stroke-width="2" stroke-miterlimit="10" stroke-linecap="round" stroke-linejoin="round"/>
<path d="M18.2 38.3504H33.8C34.8833 38.3504 35.75 37.4837 35.75 36.4004C35.75 31.0054 31.395 26.6504 26 26.6504C20.605 26.6504 16.25 31.0054 16.25 36.4004C16.25 37.4837 17.1167 38.3504 18.2 38.3504Z" stroke="#BDBDBD" stroke-width="2" stroke-miterlimit="10" stroke-linecap="round" stroke-linejoin="round"/>
</svg>
