<svg width="16" height="16" viewBox="0 0 16 16" fill="none" xmlns="http://www.w3.org/2000/svg">
<g id="Huge-icon/weather/outline/snow">
<path id="Vector" d="M7.14653 2.13764C6.85364 1.84475 6.37877 1.84475 6.08587 2.13764C5.79298 2.43053 5.79298 2.90541 6.08587 3.1983L7.14653 2.13764ZM8.89234 3.05849L9.42268 3.58882V3.58882L8.89234 3.05849ZM9.8132 3.1983C10.1061 2.90541 10.1061 2.43053 9.8132 2.13764C9.52031 1.84475 9.04543 1.84475 8.75254 2.13764L9.8132 3.1983ZM6.08587 12.8043C5.79298 13.0972 5.79298 13.5721 6.08587 13.865C6.37877 14.1579 6.85364 14.1579 7.14653 13.865L6.08587 12.8043ZM8.75254 13.865C9.04543 14.1579 9.52031 14.1579 9.8132 13.865C10.1061 13.5721 10.1061 13.0972 9.8132 12.8043L8.75254 13.865ZM8.69955 4.0013V3.2513H7.19955V4.0013H8.69955ZM7.19955 12.0013V12.7513H8.69955V12.0013H7.19955ZM2.46995 5.76489C2.06985 5.8721 1.83242 6.28335 1.93962 6.68345C2.04683 7.08355 2.45808 7.32099 2.85818 7.21378L2.46995 5.76489ZM3.19753 6.3464L3.39165 7.07084L3.39165 7.07084L3.19753 6.3464ZM4.14034 4.7134L3.4159 4.90752L3.4159 4.90752L4.14034 4.7134ZM4.72184 3.98582C4.61464 3.58572 4.20339 3.34829 3.80329 3.45549C3.40319 3.5627 3.16575 3.97395 3.27296 4.37405L4.72184 3.98582ZM11.1772 12.0168C11.2844 12.4169 11.6957 12.6543 12.0958 12.5471C12.4959 12.4399 12.7333 12.0287 12.6261 11.6286L11.1772 12.0168ZM11.7587 11.2892L12.4832 11.0951L11.7587 11.2892ZM12.7015 9.65621L12.8957 10.3807L12.7015 9.65621ZM13.4291 10.2377C13.8292 10.1305 14.0667 9.71926 13.9594 9.31916C13.8522 8.91906 13.441 8.68162 13.0409 8.78883L13.4291 10.2377ZM4.86044 5.35178L4.21092 4.97678L3.46092 6.27582L4.11044 6.65082L4.86044 5.35178ZM11.0386 10.6508L11.6882 11.0258L12.4382 9.72678L11.7886 9.35178L11.0386 10.6508ZM12.6261 4.37405C12.7333 3.97395 12.4959 3.56269 12.0958 3.45549C11.6957 3.34828 11.2844 3.58572 11.1772 3.98582L12.6261 4.37405ZM11.7587 4.7134L12.4832 4.90751V4.90751L11.7587 4.7134ZM12.7015 6.34639L12.8957 5.62195V5.62195L12.7015 6.34639ZM13.0409 7.21378C13.441 7.32098 13.8522 7.08355 13.9594 6.68345C14.0667 6.28335 13.8292 5.87209 13.4291 5.76489L13.0409 7.21378ZM2.85818 8.78882C2.45808 8.68161 2.04682 8.91905 1.93962 9.31915C1.83241 9.71925 2.06985 10.1305 2.46995 10.2377L2.85818 8.78882ZM3.19753 9.65621L3.39164 8.93176H3.39164L3.19753 9.65621ZM4.14034 11.2892L4.86478 11.4833L4.14034 11.2892ZM3.27295 11.6286C3.16575 12.0287 3.40318 12.4399 3.80328 12.5471C4.20338 12.6543 4.61463 12.4169 4.72184 12.0168L3.27295 11.6286ZM11.7886 6.65082L12.4382 6.27582L11.6882 4.97678L11.0386 5.35178L11.7886 6.65082ZM4.11043 9.35178L3.46092 9.72678L4.21092 11.0258L4.86043 10.6508L4.11043 9.35178ZM6.08587 3.1983L6.4764 3.58882L7.53706 2.52816L7.14653 2.13764L6.08587 3.1983ZM9.42268 3.58882L9.8132 3.1983L8.75254 2.13764L8.36201 2.52816L9.42268 3.58882ZM6.4764 3.58882C7.28999 4.40242 8.60908 4.40241 9.42268 3.58882L8.36201 2.52816C8.13421 2.75597 7.76486 2.75597 7.53706 2.52816L6.4764 3.58882ZM7.14653 13.865L7.53706 13.4744L6.4764 12.4138L6.08587 12.8043L7.14653 13.865ZM8.36201 13.4744L8.75254 13.865L9.8132 12.8043L9.42268 12.4138L8.36201 13.4744ZM7.53706 13.4744C7.76486 13.2466 8.13421 13.2466 8.36201 13.4744L9.42268 12.4138C8.60908 11.6002 7.28999 11.6002 6.4764 12.4138L7.53706 13.4744ZM7.19955 4.0013V12.0013H8.69955V4.0013H7.19955ZM2.85818 7.21378L3.39165 7.07084L3.00342 5.62195L2.46995 5.76489L2.85818 7.21378ZM4.86479 4.51929L4.72184 3.98582L3.27296 4.37405L3.4159 4.90752L4.86479 4.51929ZM3.39165 7.07084C4.50304 6.77305 5.16258 5.63068 4.86479 4.51929L3.4159 4.90752C3.49928 5.21871 3.31461 5.53857 3.00342 5.62195L3.39165 7.07084ZM12.6261 11.6286L12.4832 11.0951L11.0343 11.4833L11.1772 12.0168L12.6261 11.6286ZM12.8957 10.3807L13.4291 10.2377L13.0409 8.78883L12.5074 8.93177L12.8957 10.3807ZM12.4832 11.0951C12.3998 10.7839 12.5845 10.464 12.8957 10.3807L12.5074 8.93177C11.396 9.22956 10.7365 10.3719 11.0343 11.4833L12.4832 11.0951ZM4.11044 6.65082L11.0386 10.6508L11.7886 9.35178L4.86044 5.35178L4.11044 6.65082ZM11.1772 3.98582L11.0343 4.51928L12.4832 4.90751L12.6261 4.37405L11.1772 3.98582ZM12.5074 7.07084L13.0409 7.21378L13.4291 5.76489L12.8957 5.62195L12.5074 7.07084ZM11.0343 4.51928C10.7365 5.63067 11.396 6.77304 12.5074 7.07084L12.8957 5.62195C12.5845 5.53856 12.3998 5.2187 12.4832 4.90751L11.0343 4.51928ZM2.46995 10.2377L3.00341 10.3807L3.39164 8.93176L2.85818 8.78882L2.46995 10.2377ZM3.41589 11.0951L3.27295 11.6286L4.72184 12.0168L4.86478 11.4833L3.41589 11.0951ZM3.00341 10.3807C3.3146 10.464 3.49928 10.7839 3.41589 11.0951L4.86478 11.4833C5.16258 10.3719 4.50303 9.22956 3.39164 8.93176L3.00341 10.3807ZM11.0386 5.35178L4.11043 9.35178L4.86043 10.6508L11.7886 6.65082L11.0386 5.35178Z" fill="#007FFF"/>
</g>
</svg>
