<svg width="20" height="20" viewBox="0 0 20 20" fill="none" xmlns="http://www.w3.org/2000/svg">
  <path
    d="M16.6265 4.87203L15.915 5.10921L15.915 5.10921L16.6265 4.87203ZM15.9578 5.2375C16.0887 5.63046 16.5135 5.84282 16.9064 5.71184C17.2994 5.58085 17.5118 5.15611 17.3808 4.76315L15.9578 5.2375ZM13.5731 0.95548C13.1802 0.824494 12.7554 1.03686 12.6244 1.42982C12.4934 1.82278 12.7058 2.24752 13.0988 2.3785L13.5731 0.95548ZM13.4642 1.70976L13.2271 2.42127V2.42127L13.4642 1.70976ZM3.71551 12.4004L3.14395 11.9148H3.14395L3.71551 12.4004ZM4.44824 10.6991L3.703 10.6147L4.44824 10.6991ZM15.557 10.6991L16.3022 10.6147L15.557 10.6991ZM16.2897 12.4004L16.8613 11.9148L16.2897 12.4004ZM15.2696 8.16202L14.5243 8.24644V8.24644L15.2696 8.16202ZM4.73563 8.16202L5.48087 8.24644L4.73563 8.16202ZM13.2049 16.9302C13.3503 16.5423 13.1537 16.1101 12.7658 15.9647C12.3779 15.8193 11.9457 16.0159 11.8003 16.4038L13.2049 16.9302ZM8.2049 16.4038C8.05954 16.0159 7.62727 15.8193 7.2394 15.9647C6.85153 16.1101 6.65494 16.5423 6.80031 16.9302L8.2049 16.4038ZM3.3787 4.87203L4.09021 5.10921L4.09021 5.10921L3.3787 4.87203ZM2.62443 4.76315C2.49344 5.15611 2.70581 5.58085 3.09877 5.71184C3.49172 5.84282 3.91646 5.63045 4.04745 5.2375L2.62443 4.76315ZM6.90644 2.3785C7.2994 2.24752 7.51177 1.82278 7.38078 1.42982C7.2498 1.03686 6.82506 0.824494 6.4321 0.95548L6.90644 2.3785ZM6.54098 1.70976L6.30381 0.998244H6.30381L6.54098 1.70976ZM15.915 5.10921L15.9578 5.2375L17.3808 4.76315L17.338 4.63486L15.915 5.10921ZM13.0988 2.3785L13.2271 2.42127L13.7014 0.998244L13.5731 0.95548L13.0988 2.3785ZM17.338 4.63486C16.7657 2.91788 15.4184 1.57057 13.7014 0.998244L13.2271 2.42127C14.4961 2.84429 15.492 3.84013 15.915 5.10921L17.338 4.63486ZM15.1442 14.2503H4.86105V15.7503H15.1442V14.2503ZM14.5243 8.24644L14.8117 10.7835L16.3022 10.6147L16.0148 8.0776L14.5243 8.24644ZM5.19347 10.7835L5.48087 8.24644L3.9904 8.0776L3.703 10.6147L5.19347 10.7835ZM4.28708 12.886C4.79059 12.2933 5.10551 11.56 5.19347 10.7835L3.703 10.6147C3.64814 11.099 3.45206 11.5521 3.14395 11.9148L4.28708 12.886ZM14.8117 10.7835C14.8997 11.56 15.2146 12.2933 15.7181 12.886L16.8613 11.9148C16.5531 11.5521 16.3571 11.099 16.3022 10.6147L14.8117 10.7835ZM4.86105 14.2503C4.23581 14.2503 3.81151 13.4457 4.28708 12.886L3.14395 11.9148C1.89717 13.3822 2.87075 15.7503 4.86105 15.7503V14.2503ZM15.1442 15.7503C17.1345 15.7503 18.108 13.3822 16.8613 11.9148L15.7181 12.886C16.1937 13.4457 15.7694 14.2503 15.1442 14.2503V15.7503ZM16.0148 8.0776C15.662 4.96325 13.0923 2.58366 10.0026 2.58366V4.08366C12.2947 4.08366 14.2535 5.8555 14.5243 8.24644L16.0148 8.0776ZM5.48087 8.24644C5.75172 5.8555 7.71055 4.08366 10.0026 4.08366V2.58366C6.9129 2.58366 4.3432 4.96325 3.9904 8.0776L5.48087 8.24644ZM11.8003 16.4038C11.5504 17.0707 10.8563 17.5837 10.0026 17.5837V19.0837C11.4572 19.0837 12.727 18.2053 13.2049 16.9302L11.8003 16.4038ZM10.0026 17.5837C9.14886 17.5837 8.45484 17.0707 8.2049 16.4038L6.80031 16.9302C7.27818 18.2053 8.54796 19.0837 10.0026 19.0837V17.5837ZM2.66719 4.63486L2.62443 4.76315L4.04745 5.2375L4.09021 5.10921L2.66719 4.63486ZM6.4321 0.95548L6.30381 0.998244L6.77815 2.42127L6.90644 2.3785L6.4321 0.95548ZM4.09021 5.10921C4.51324 3.84013 5.50908 2.84429 6.77815 2.42127L6.30381 0.998244C4.58683 1.57057 3.23951 2.91788 2.66719 4.63486L4.09021 5.10921Z"
    fill="currentColor" />
</svg>