<svg xmlns="http://www.w3.org/2000/svg" fill="none" viewBox="0 0 24 24">
  <path stroke="currentColor" stroke-width="1.5" d="M11 20.5a1.5 1.5 0 1 1-3 0 1.5 1.5 0 0 1 3 0Z" />
  <path stroke="currentColor" stroke-width="1.5" d="M20 20.5a1.5 1.5 0 1 1-3 0 1.5 1.5 0 0 1 3 0Z" />
  <path stroke="currentColor" stroke-linecap="round" stroke-linejoin="round" stroke-width="1.5"
    d="m11 11 1.753 1.402a1 1 0 0 0 1.377-.122L17 9" />
  <path stroke="currentColor" stroke-linecap="round" stroke-linejoin="round" stroke-width="1.5"
    d="M6 4h12a4 4 0 0 1 4 4v5a4 4 0 0 1-4 4h-8a4 4 0 0 1-4-4V4Zm0 0a2 2 0 0 0-2-2H2" />
</svg>