<svg xmlns="http://www.w3.org/2000/svg" fill="none" viewBox="0 0 24 24">
  <path stroke="currentColor" stroke-linejoin="round" stroke-width="1.5"
    d="M2 4a2 2 0 0 1 2-2h4a2 2 0 0 1 2 2v2a2 2 0 0 1-2 2H4a2 2 0 0 1-2-2V4Z" />
  <path stroke="currentColor" stroke-linejoin="round" stroke-width="1.5"
    d="M2 14a2 2 0 0 1 2-2h4a2 2 0 0 1 2 2v6a2 2 0 0 1-2 2H4a2 2 0 0 1-2-2v-6Z" />
  <path stroke="currentColor" stroke-linejoin="round" stroke-width="1.5"
    d="M14 4a2 2 0 0 1 2-2h4a2 2 0 0 1 2 2v6a2 2 0 0 1-2 2h-4a2 2 0 0 1-2-2V4Z" />
  <path stroke="currentColor" stroke-linejoin="round" stroke-width="1.5"
    d="M14 18a2 2 0 0 1 2-2h4a2 2 0 0 1 2 2v2a2 2 0 0 1-2 2h-4a2 2 0 0 1-2-2v-2Z" />
</svg>