<svg width="25" height="24" viewBox="0 0 25 24" fill="none" xmlns="http://www.w3.org/2000/svg">
<g id="vuesax/linear/percentage-square">
<path id="Vector" d="M9.5 2H15.5C20.5 2 22.5 4 22.5 9V15C22.5 20 20.5 22 15.5 22H9.5C4.5 22 2.5 20 2.5 15V9C2.5 4 4.5 2 9.5 2Z" stroke="white" stroke-width="1.5" stroke-linecap="round" stroke-linejoin="round"/>
<path id="Vector_2" d="M9.07031 15.2704L15.6103 8.73047" stroke="white" stroke-width="1.5" stroke-linecap="round" stroke-linejoin="round"/>
<path id="Vector_3" d="M9.48001 10.3701C10.1593 10.3701 10.71 9.81948 10.71 9.14017C10.71 8.46086 10.1593 7.91016 9.48001 7.91016C8.8007 7.91016 8.25 8.46086 8.25 9.14017C8.25 9.81948 8.8007 10.3701 9.48001 10.3701Z" stroke="white" stroke-width="1.5" stroke-linecap="round" stroke-linejoin="round"/>
<path id="Vector_4" d="M16.019 16.0889C16.6984 16.0889 17.2491 15.5382 17.2491 14.8589C17.2491 14.1796 16.6984 13.6289 16.019 13.6289C15.3397 13.6289 14.7891 14.1796 14.7891 14.8589C14.7891 15.5382 15.3397 16.0889 16.019 16.0889Z" stroke="white" stroke-width="1.5" stroke-linecap="round" stroke-linejoin="round"/>
</g>
</svg>
