<svg width="24" height="24" viewBox="0 0 24 24" fill="none" xmlns="http://www.w3.org/2000/svg">
<g id="vuesax/linear/security-user">
<g id="security-user">
<g id="Group">
<path id="Vector" d="M10.4862 2.22859L5.49625 4.09859C4.34625 4.52859 3.40625 5.88858 3.40625 7.11858V14.5486C3.40625 15.7286 4.18626 17.2786 5.13626 17.9886L9.43625 21.1986C10.8462 22.2586 13.1662 22.2586 14.5762 21.1986L18.8763 17.9886C19.8263 17.2786 20.6062 15.7286 20.6062 14.5486V7.11858C20.6062 5.88858 19.6662 4.52859 18.5162 4.09859L13.5262 2.22859C12.6762 1.91859 11.3162 1.91859 10.4862 2.22859Z" stroke="white" stroke-width="1.5" stroke-linecap="round" stroke-linejoin="round"/>
</g>
<g id="Group_2">
<path id="Vector_2" d="M11.9997 10.9185C11.9597 10.9185 11.9097 10.9185 11.8697 10.9185C10.9297 10.8885 10.1797 10.1084 10.1797 9.15845C10.1797 8.18845 10.9697 7.39844 11.9397 7.39844C12.9097 7.39844 13.6997 8.18845 13.6997 9.15845C13.6897 10.1184 12.9397 10.8885 11.9997 10.9185Z" stroke="white" stroke-width="1.5" stroke-linecap="round" stroke-linejoin="round"/>
<path id="Vector_3" d="M10.0091 13.7194C9.04906 14.3594 9.04906 15.4094 10.0091 16.0494C11.0991 16.7794 12.8891 16.7794 13.9791 16.0494C14.9391 15.4094 14.9391 14.3594 13.9791 13.7194C12.8991 12.9894 11.1091 12.9894 10.0091 13.7194Z" stroke="white" stroke-width="1.5" stroke-linecap="round" stroke-linejoin="round"/>
</g>
</g>
</g>
</svg>
