<svg xmlns="http://www.w3.org/2000/svg" fill="none" viewBox="0 0 28 28">
  <g clip-path="url(#clip0_129_272)">
    <path fill="#fff" d="M2 5.304C2 4.584 2.576 4 3.286 4h21.428C25.427 4 26 4.584 26 5.304c0 .723-.573 1.305-1.286 1.305H3.286C2.576 6.609 2 6.027 2 5.304ZM2 14c0-.723.576-1.304 1.286-1.304h21.428c.713 0 1.286.581 1.286 1.304 0 .723-.573 1.304-1.286 1.304H3.286C2.576 15.304 2 14.723 2 14Zm22.714 10H3.286C2.576 24 2 23.419 2 22.696c0-.723.576-1.305 1.286-1.305h21.428c.713 0 1.286.582 1.286 1.305S25.427 24 24.714 24Z"/>
  </g>
  <defs>
    <clipPath id="clip0_129_272">
      <path fill="#fff" d="M0 0h28v28H0z"/>
    </clipPath>
  </defs>
</svg>
