<svg xmlns="http://www.w3.org/2000/svg" fill="none" viewBox="0 0 28 28">
  <path fill="currentColor"
    d="M24.425 7.768a4.26 4.26 0 0 0-3.048-1.294 4.26 4.26 0 0 0-3.047 1.294l-10.4 10.69c-.724.73-1.902.73-2.6 0a1.928 1.928 0 0 1 0-2.682l5.2-5.339.942.968a.5.5 0 0 0 .716 0l3.642-3.729a.5.5 0 0 0 0-.698l-.1-.104 1.741-1.775c.23-.24.359-.564.359-.9 0-.338-.129-.66-.359-.901L15.73 1.535c-.503-.49-1.251-.49-1.73 0l-1.729 1.763-.083-.08a.5.5 0 0 0-.707.01L7.84 6.978a.5.5 0 0 0 0 .698l.961.986L3.576 14a4.508 4.508 0 0 0-1.242 3.117c0 1.165.446 2.284 1.242 3.116 1.692 1.725 4.415 1.725 6.083 0L20.07 9.543c.724-.73 1.901-.73 2.6 0a1.928 1.928 0 0 1 0 2.682l-5.2 5.339-.942-.968a.5.5 0 0 0-.716 0l-3.643 3.729a.5.5 0 0 0 0 .698l.101.104-1.742 1.775a1.309 1.309 0 0 0 0 1.8l1.742 1.763c.503.491 1.251.491 1.73 0l1.729-1.762.082.08a.5.5 0 0 0 .707-.01l3.643-3.75a.5.5 0 0 0 0-.698l-.962-.986L24.425 14a4.508 4.508 0 0 0 1.242-3.116 4.508 4.508 0 0 0-1.242-3.116Zm-9.554-5.339 1.73 1.776-1.73 1.787-1.742-1.787m0 17.803 1.742 1.788-1.742 1.775-1.729-1.775 1.73-1.788Z" />
</svg>