<svg xmlns="http://www.w3.org/2000/svg" fill="none" viewBox="0 0 28 28">
  <path fill="currentColor"
    d="M13.81 10.935a.5.5 0 0 0 .381 0l4.146-1.71L7.6 4.794 3.896 6.32a2.13 2.13 0 0 0-.521.308l10.435 4.307ZM2.596 7.9c-.033.157-.05.317-.05.477v11.299c0 .443.128.876.37 1.243.24.367.581.65.98.815l8.243 3.403c.19.079.383.145.579.198.294.08.566-.156.566-.46v-12.23a.5.5 0 0 0-.309-.462L2.596 7.9Zm12.12 16.975c0 .306.273.541.567.461.197-.053.39-.12.579-.197l8.243-3.403c.399-.165.74-.45.981-.816.24-.368.37-.8.369-1.244V8.377c0-.162-.017-.323-.05-.478l-10.38 4.284a.5.5 0 0 0-.309.463v12.23Zm9.91-18.246-4.361 1.802L9.526 3.998l2.613-1.082a4.867 4.867 0 0 1 3.723 0l8.243 3.403c.187.077.362.18.521.307v.003Z" />
</svg>