<svg xmlns="http://www.w3.org/2000/svg" fill="none" viewBox="0 0 28 28">
  <path fill="currentColor" fill-rule="evenodd"
    d="M19.915 2.333c.931 0 1.69.722 1.69 1.61v5.331a.3.3 0 0 1-.3.3H6.696a.3.3 0 0 1-.3-.3V3.942c0-.887.758-1.609 1.69-1.609h11.828ZM17.08 7.161a.3.3 0 0 0 .3-.3V5.047a.3.3 0 0 0-.3-.3h-1.09a.3.3 0 0 0-.3.3v.204a.3.3 0 0 1-.3.3h-2.779a.3.3 0 0 1-.3-.3v-.204a.3.3 0 0 0-.3-.3h-1.09a.3.3 0 0 0-.3.3V6.86a.3.3 0 0 0 .3.3h6.16Zm2.835 18.505H8.087c-.932 0-1.69-.721-1.69-1.609v-5.332a.3.3 0 0 1 .3-.3h14.607a.3.3 0 0 1 .3.3v5.332c0 .888-.758 1.61-1.69 1.61Zm-8.993-4.827a.3.3 0 0 0-.3.3v1.814a.3.3 0 0 0 .3.3h6.158a.3.3 0 0 0 .3-.3v-1.814a.3.3 0 0 0-.3-.3h-1.09a.3.3 0 0 0-.3.3v.204a.3.3 0 0 1-.3.3h-2.779a.3.3 0 0 1-.3-.3v-.204a.3.3 0 0 0-.3-.3h-1.09ZM6.699 17.62a.3.3 0 0 1-.3-.3L6.4 16.01V10.68a.3.3 0 0 1 .3-.3h14.607a.3.3 0 0 1 .3.3V17.32a.3.3 0 0 1-.3.3H6.699Zm4.225-4.827a.3.3 0 0 0-.3.3v1.813a.3.3 0 0 0 .3.3h6.159a.3.3 0 0 0 .3-.3v-1.813a.3.3 0 0 0-.3-.3h-1.09a.3.3 0 0 0-.3.3v.204a.3.3 0 0 1-.3.3h-2.779a.3.3 0 0 1-.3-.3v-.204a.3.3 0 0 0-.3-.3h-1.09Z"
    clip-rule="evenodd" />
</svg>