<svg xmlns="http://www.w3.org/2000/svg" fill="none" viewBox="0 0 28 28">
  <g clip-path="url(#clip0_107_1607)">
    <path fill="currentColor"
      d="M5.594 15.579H2.131c-.475 0-.859-.48-.859-.985 0-.507.384-.986.859-.986h3.485c.415-1.799 2.066-3.426 4.04-3.426h.976v8.909h-.976c-2.01 0-3.686-1.628-4.062-3.513Zm12.75-5.397c1.974 0 3.625 1.627 4.04 3.426h3.485c.474 0 .858.479.858.986s-.384.985-.858.985h-3.463c-.376 1.884-2.052 3.512-4.063 3.512h-5.305v-8.91h5.305Z" />
  </g>
  <defs>
    <clipPath id="clip0_107_1607">
      <path fill="#fff" d="M0 0h28v28H0z" />
    </clipPath>
  </defs>
</svg>