<svg xmlns="http://www.w3.org/2000/svg" fill="none" viewBox="0 0 28 28">
  <path fill="currentColor" fill-rule="evenodd"
    d="M13.416 16.532v-1.365H17.5c.606 0 .805-.817.28-1.097l-2.614-1.388-3.22-1.727a.584.584 0 0 0-.863.514v1.365H7c-.607 0-.805.816-.28 1.096l5.833 3.115c.397.21.863-.07.863-.513ZM3.885 8.167H21.78c.852 0 1.552.7 1.552 1.552v1.948H24.5a1.17 1.17 0 0 1 1.166 1.167v2.333a1.17 1.17 0 0 1-1.166 1.167h-1.167v1.948c0 .852-.7 1.552-1.552 1.552H3.885c-.852 0-1.552-.7-1.552-1.564V9.72c0-.852.7-1.552 1.552-1.552Z"
    clip-rule="evenodd" />
</svg>