<svg xmlns="http://www.w3.org/2000/svg" fill="none" viewBox="0 0 28 28">
  <g clip-path="url(#clip0_107_1595)">
    <path fill="currentColor"
      d="M17.5 2.333A1.167 1.167 0 0 1 18.666 3.5v1.166h1.167a3.5 3.5 0 0 1 3.5 3.5v1.167H24.5a1.167 1.167 0 0 1 0 2.333h-1.167v4.667H24.5a1.167 1.167 0 1 1 0 2.333h-1.167v1.167a3.5 3.5 0 0 1-3.5 3.5h-1.167V24.5a1.167 1.167 0 1 1-2.333 0v-1.167h-4.667V24.5a1.167 1.167 0 1 1-2.333 0v-1.167H8.166a3.5 3.5 0 0 1-3.5-3.5v-1.167H3.5a1.167 1.167 0 1 1 0-2.333h1.166v-4.667H3.5a1.167 1.167 0 1 1 0-2.333h1.166V8.166a3.5 3.5 0 0 1 3.5-3.5h1.167V3.5a1.167 1.167 0 1 1 2.333 0v1.166h4.667V3.5A1.167 1.167 0 0 1 17.5 2.333Zm-1.167 7h-4.667a2.333 2.333 0 0 0-2.333 2.333v4.667a2.333 2.333 0 0 0 2.333 2.333h4.667a2.333 2.333 0 0 0 2.333-2.333v-4.667a2.333 2.333 0 0 0-2.333-2.333Zm0 2.333v4.667h-4.667v-4.667h4.667Z" />
  </g>
  <defs>
    <clipPath id="clip0_107_1595">
      <path fill="#fff" d="M0 0h28v28H0z" />
    </clipPath>
  </defs>
</svg>