<svg xmlns="http://www.w3.org/2000/svg" fill="none" viewBox="0 0 28 28">
  <path fill="currentColor" fill-rule="evenodd"
    d="M24.531 5.058c.171-.257.501-.384.597.224.096.609.2 2.958-.422 4.073-.692 1.249-1.84 2.003-3.946 1.55-.982-.215-2.068.259-2.576.746l-1.777 1.611a.5.5 0 0 1-.691-.02l-1.203-1.22a.5.5 0 0 1 .02-.72l1.511-1.37c.939-.902.946-1.81.953-2.764.004-.497.008-1.008.143-1.537.358-1.406 2.773-2.419 3.498-2.723.06-.024.107-.044.141-.06.46-.202.593.281.479.447a50.543 50.543 0 0 0-1.215 2.039c-.264.467-.644 1.14.753 2.083 1.42.962 2.184-.012 2.494-.504.215-.344.644-.975.945-1.417.134-.197.243-.357.296-.438ZM2.801 22.571c0-.175.072-.343.201-.467l7.233-6.7a.5.5 0 0 1 .691.011l1.36 1.343a.5.5 0 0 1-.01.722L5.19 24.074c-.268.257-.694.366-.962.108l-1.226-1.144a.648.648 0 0 1-.201-.467Zm14.992-7.376c.112.12.107.311.026.454-.188.33-.361.973.434 1.733.18.171.437.208.773.257.629.09 1.531.22 2.707 1.343l2.707 2.586s.774 1.23-.773 2.708c-1.547 1.478-2.836.739-2.836.739l-2.707-2.585c-1.226-1.171-1.364-1.996-1.465-2.6-.058-.348-.104-.622-.34-.848-.783-.748-1.39-.542-1.702-.33-.14.096-.34.115-.47.005l-.668-.567a.3.3 0 0 1-.013-.446l.92-.878-7.35-6.895-1.546-.615L4.2 6.424l.903-.862L7.94 6.916l.516 1.478 7.348 7.018.94-.899a.3.3 0 0 1 .427.013l.623.669Zm.588 3.172-.902.861 4.899 4.679.902-.862-4.899-4.678Z"
    clip-rule="evenodd" />
</svg>