<svg width="20" height="20" viewBox="0 0 20 20" fill="none" xmlns="http://www.w3.org/2000/svg">
<g id="Huge-icon/business/outline/briefcase 03" clip-path="url(#clip0_59_5090)">
<path id="Vector" d="M6.66675 5.00001V4.16667C6.66675 2.78596 7.78604 1.66667 9.16675 1.66667H10.8334C12.2141 1.66667 13.3334 2.78596 13.3334 4.16667V5.00001M1.66675 10.8333H18.3334M6.66675 9.58334V12.0833M13.3334 9.58334V12.0833M5.00008 18.3333H15.0001C16.841 18.3333 18.3334 16.841 18.3334 15V8.33334C18.3334 6.49239 16.841 5.00001 15.0001 5.00001H5.00008C3.15913 5.00001 1.66675 6.49239 1.66675 8.33334V15C1.66675 16.841 3.15913 18.3333 5.00008 18.3333Z" stroke="currentColor" stroke-width="1.5" stroke-linecap="round"/>
</g>
<defs>
<clipPath id="clip0_59_5090">
<rect width="20" height="20" fill="white"/>
</clipPath>
</defs>
</svg>
