<svg width="20" height="20" viewBox="0 0 20 20" fill="none" xmlns="http://www.w3.org/2000/svg">
<g id="vuesax/linear/buildings">
<g id="buildings">
<path id="Vector" d="M10.8333 18.3333H4.16663C2.49996 18.3333 1.66663 17.5 1.66663 15.8333V9.16666C1.66663 7.49999 2.49996 6.66666 4.16663 6.66666H8.33329V15.8333C8.33329 17.5 9.16663 18.3333 10.8333 18.3333Z" stroke="currentColor" stroke-width="1.5" stroke-miterlimit="10" stroke-linecap="round" stroke-linejoin="round"/>
<path id="Vector_2" d="M8.42495 3.33334C8.35828 3.58334 8.33329 3.85834 8.33329 4.16668V6.66668H4.16663V5.00001C4.16663 4.08334 4.91663 3.33334 5.83329 3.33334H8.42495Z" stroke="currentColor" stroke-width="1.5" stroke-miterlimit="10" stroke-linecap="round" stroke-linejoin="round"/>
<path id="Vector_3" d="M11.6666 6.66666V10.8333" stroke="currentColor" stroke-width="1.5" stroke-miterlimit="10" stroke-linecap="round" stroke-linejoin="round"/>
<path id="Vector_4" d="M15 6.66666V10.8333" stroke="currentColor" stroke-width="1.5" stroke-miterlimit="10" stroke-linecap="round" stroke-linejoin="round"/>
<path id="Vector_5" d="M14.1666 14.1667H12.5C12.0416 14.1667 11.6666 14.5417 11.6666 15V18.3333H15V15C15 14.5417 14.625 14.1667 14.1666 14.1667Z" stroke="currentColor" stroke-width="1.5" stroke-miterlimit="10" stroke-linecap="round" stroke-linejoin="round"/>
<path id="Vector_6" d="M5 10.8333V14.1667" stroke="currentColor" stroke-width="1.5" stroke-miterlimit="10" stroke-linecap="round" stroke-linejoin="round"/>
<path id="Vector_7" d="M8.33337 15.8333V4.16666C8.33337 2.49999 9.16671 1.66666 10.8334 1.66666H15.8334C17.5 1.66666 18.3334 2.49999 18.3334 4.16666V15.8333C18.3334 17.5 17.5 18.3333 15.8334 18.3333H10.8334C9.16671 18.3333 8.33337 17.5 8.33337 15.8333Z" stroke="currentColor" stroke-width="1.5" stroke-miterlimit="10" stroke-linecap="round" stroke-linejoin="round"/>
</g>
</g>
</svg>
