<svg width="16" height="16" viewBox="0 0 16 16" fill="none" xmlns="http://www.w3.org/2000/svg">
<g id="huge-icon/education/outline/help 02" clip-path="url(#clip0_59_7608)">
<path id="Vector" d="M6.00004 5.99992C6.00004 4.89535 6.89547 3.99992 8.00004 3.99992C9.10461 3.99992 10 4.89535 10 5.99992C10 6.87524 9.43773 7.61922 8.65464 7.89034C8.30671 8.0108 8.00004 8.2984 8.00004 8.66659V9.33325M14.6667 7.99992C14.6667 11.6818 11.6819 14.6666 8.00004 14.6666C4.31814 14.6666 1.33337 11.6818 1.33337 7.99992C1.33337 4.31802 4.31814 1.33325 8.00004 1.33325C11.6819 1.33325 14.6667 4.31802 14.6667 7.99992Z" stroke="#5E6278" stroke-linecap="round"/>
<ellipse id="Ellipse 1181" cx="8.00004" cy="11.3334" rx="0.666667" ry="0.666667" fill="#5E6278"/>
</g>
<defs>
<clipPath id="clip0_59_7608">
<rect width="16" height="16" fill="white"/>
</clipPath>
</defs>
</svg>
