<svg xmlns="http://www.w3.org/2000/svg" fill="none" viewBox="0 0 32 32">
  <path fill="#5E6278" d="m24.547 5.333-3.213 3.213v.24L24.547 12h4.787v2.666h-5.88l-2.12-2.12V16H20a2.667 2.667 0 0 1-2.666-2.667V10h-4.187c-.12.493-.32.96-.587 1.4l7.68 13.933h6.427A2.667 2.667 0 0 1 29.333 28v1.333H2.668V28a2.667 2.667 0 0 1 2.666-2.667h8.814L7.893 14a5.342 5.342 0 0 1-5.08-4 5.333 5.333 0 0 1 3.854-6.494 5.318 5.318 0 0 1 6.48 3.827h4.187V4A2.667 2.667 0 0 1 20 1.333h1.334v3.453l2.12-2.12h5.88v2.667h-4.787ZM8 6a2.667 2.667 0 1 0 0 5.333A2.667 2.667 0 0 0 8 6Z"/>
</svg>
