<svg xmlns="http://www.w3.org/2000/svg" fill="none" viewBox="0 0 32 32">
  <path fill="#5E6278" d="M2.91 14.679v7.634c0 2.936 1.32 2.936 2.935 2.936h.734c1.615 0 2.496-1.322 2.496-2.936v-4.551c0-1.615-.881-2.936-2.936-2.936h-.294v-.147A10.269 10.269 0 0 1 16.121 4.403a10.269 10.269 0 0 1 10.276 10.276v.147h-.293c-2.055 0-2.936 1.32-2.936 2.936v4.55c0 1.615.88 2.937 2.495 2.937h.734c1.615 0 2.936 0 2.936-2.936v-7.634a13.212 13.212 0 0 0-26.424 0Z"/>
  <path stroke="#5E6278" stroke-width="1.5" d="M28.012 21.285c0 7.927-3.73 7.927-10.57 7.927"/>
  <rect width="5.285" height="2.642" x="14.8" y="27.891" fill="#5E6278" rx=".5"/>
</svg>
