<svg xmlns="http://www.w3.org/2000/svg" fill="none" viewBox="0 0 32 32">
  <path fill="#5E6278" d="M4.946 7.04c-1.02 0-1.846.856-1.846 1.91v1.97H1.255a.628.628 0 0 0-.615.637c0 .35.276.637.615.637h9.842c.339 0 .615.286.615.636 0 .35-.276.637-.615.637H2.485a.628.628 0 0 0-.615.637c0 .35.277.637.615.637h7.382c.338 0 .615.287.615.637 0 .35-.277.637-.615.637H1.255a.628.628 0 0 0-.615.637c0 .35.276.637.615.637h7.382c.338 0 .615.287.615.637 0 .35-.277.637-.615.637H3.1v4.496c0 2.11 1.653 3.821 3.691 3.821s3.691-1.712 3.691-3.821h11.035c0 2.11 1.653 3.821 3.691 3.821s3.691-1.712 3.691-3.821h1.23c.68 0 1.23-.57 1.23-1.274 0-.705-.55-1.274-1.23-1.274v-3.966c0-.677-.257-1.326-.719-1.804l-2.972-3.077a2.42 2.42 0 0 0-1.741-.744h-1.95V8.95c0-1.054-.826-1.91-1.845-1.91H4.946Zm22.723 9.504v.745h-4.922v-3.822h1.95l2.972 3.077ZM6.79 24.97c-1.019 0-1.845-.856-1.845-1.91 0-1.055.826-1.911 1.845-1.911 1.019 0 1.846.856 1.846 1.91 0 1.055-.827 1.911-1.846 1.911Zm20.263-1.91c0 1.054-.827 1.91-1.846 1.91-1.019 0-1.845-.856-1.845-1.91 0-1.055.826-1.911 1.845-1.911 1.019 0 1.846.856 1.846 1.91Z"/>
</svg>
