<svg xmlns="http://www.w3.org/2000/svg" fill="none" viewBox="0 0 32 32">
  <path fill="#5E6278" d="M15.81 12.508a.5.5 0 0 0 .38 0l4.767-1.965L8.684 5.477 4.452 7.223a2.435 2.435 0 0 0-.595.351l11.952 4.934ZM2.965 9.028c-.038.18-.057.362-.057.546v12.912c0 .507.147 1.001.422 1.42.275.42.666.745 1.121.933l9.42 3.889c.244.1.492.182.742.247.296.076.568-.16.568-.465V14.404a.5.5 0 0 0-.31-.462L2.967 9.028Zm13.852 19.483c0 .306.272.541.568.465.252-.064.5-.147.741-.246l9.42-3.89a2.47 2.47 0 0 0 1.122-.932 2.59 2.59 0 0 0 .422-1.422V9.574c0-.186-.02-.37-.057-.547l-11.906 4.915a.5.5 0 0 0-.31.462V28.51ZM28.143 7.576 23.16 9.635 10.887 4.568l2.986-1.236a5.563 5.563 0 0 1 4.254 0l9.42 3.89c.214.087.415.205.596.35v.004Z"/>
</svg>
