<svg width="24" height="24" viewBox="0 0 24 24" fill="none" xmlns="http://www.w3.org/2000/svg">
<g id="Country Flags/Asia/Japan">
<g id="US">
<rect id="Mask" y="3.42969" width="24" height="17.1429" rx="4" fill="white"/>
<mask id="mask0_1002_35305" style="mask-type:luminance" maskUnits="userSpaceOnUse" x="0" y="3" width="24" height="18">
<rect id="Mask_2" y="3.42969" width="24" height="17.1429" rx="2" fill="white"/>
</mask>
<g mask="url(#mask0_1002_35305)">
<path id="Rectangle 511" fill-rule="evenodd" clip-rule="evenodd" d="M24 3.42969H0V4.57254H24V3.42969ZM24 5.71484H0V6.8577H24V5.71484ZM0 8.00112H24V9.14397H0V8.00112ZM24 10.2863H0V11.4292H24V10.2863ZM0 12.5725H24V13.7154H0V12.5725ZM24 14.8578H0V16.0007H24V14.8578ZM0 17.144H24V18.2868H0V17.144ZM24 19.4293H0V20.5722H24V19.4293Z" fill="#D02F44"/>
<rect id="Rectangle 511_2" y="3.42969" width="10.2857" height="8" fill="#46467F"/>
<g id="Oval 43" filter="url(#filter0_d_1002_35305)">
<path fill-rule="evenodd" clip-rule="evenodd" d="M1.71205 5.71512C2.02764 5.71512 2.28348 5.45929 2.28348 5.14369C2.28348 4.8281 2.02764 4.57227 1.71205 4.57227C1.39646 4.57227 1.14062 4.8281 1.14062 5.14369C1.14062 5.45929 1.39646 5.71512 1.71205 5.71512ZM3.99811 5.71512C4.3137 5.71512 4.56954 5.45929 4.56954 5.14369C4.56954 4.8281 4.3137 4.57227 3.99811 4.57227C3.68252 4.57227 3.42668 4.8281 3.42668 5.14369C3.42668 5.45929 3.68252 5.71512 3.99811 5.71512ZM6.8556 5.14369C6.8556 5.45929 6.59976 5.71512 6.28417 5.71512C5.96858 5.71512 5.71274 5.45929 5.71274 5.14369C5.71274 4.8281 5.96858 4.57227 6.28417 4.57227C6.59976 4.57227 6.8556 4.8281 6.8556 5.14369ZM8.56842 5.71512C8.88402 5.71512 9.13985 5.45929 9.13985 5.14369C9.13985 4.8281 8.88402 4.57227 8.56842 4.57227C8.25283 4.57227 7.99699 4.8281 7.99699 5.14369C7.99699 5.45929 8.25283 5.71512 8.56842 5.71512ZM3.42634 6.28655C3.42634 6.60214 3.1705 6.85798 2.85491 6.85798C2.53932 6.85798 2.28348 6.60214 2.28348 6.28655C2.28348 5.97096 2.53932 5.71512 2.85491 5.71512C3.1705 5.71512 3.42634 5.97096 3.42634 6.28655ZM5.14114 6.85793C5.45673 6.85793 5.71257 6.60209 5.71257 6.2865C5.71257 5.97091 5.45673 5.71507 5.14114 5.71507C4.82555 5.71507 4.56971 5.97091 4.56971 6.2865C4.56971 6.60209 4.82555 6.85793 5.14114 6.85793ZM7.99863 6.2865C7.99863 6.60209 7.74279 6.85793 7.4272 6.85793C7.11161 6.85793 6.85577 6.60209 6.85577 6.2865C6.85577 5.97091 7.11161 5.71507 7.4272 5.71507C7.74279 5.71507 7.99863 5.97091 7.99863 6.2865ZM8.5684 8.00028C8.88399 8.00028 9.13983 7.74444 9.13983 7.42885C9.13983 7.11326 8.88399 6.85742 8.5684 6.85742C8.25281 6.85742 7.99697 7.11326 7.99697 7.42885C7.99697 7.74444 8.25281 8.00028 8.5684 8.00028ZM6.85555 7.42885C6.85555 7.74444 6.59972 8.00028 6.28412 8.00028C5.96853 8.00028 5.7127 7.74444 5.7127 7.42885C5.7127 7.11326 5.96853 6.85742 6.28412 6.85742C6.59972 6.85742 6.85555 7.11326 6.85555 7.42885ZM3.99809 8.00028C4.31368 8.00028 4.56952 7.74444 4.56952 7.42885C4.56952 7.11326 4.31368 6.85742 3.99809 6.85742C3.6825 6.85742 3.42666 7.11326 3.42666 7.42885C3.42666 7.74444 3.6825 8.00028 3.99809 8.00028ZM2.28348 7.42885C2.28348 7.74444 2.02764 8.00028 1.71205 8.00028C1.39646 8.00028 1.14062 7.74444 1.14062 7.42885C1.14062 7.11326 1.39646 6.85742 1.71205 6.85742C2.02764 6.85742 2.28348 7.11326 2.28348 7.42885ZM2.85492 9.14403C3.17052 9.14403 3.42635 8.88819 3.42635 8.5726C3.42635 8.25701 3.17052 8.00117 2.85492 8.00117C2.53933 8.00117 2.2835 8.25701 2.2835 8.5726C2.2835 8.88819 2.53933 9.14403 2.85492 9.14403ZM5.71268 8.5726C5.71268 8.88819 5.45684 9.14403 5.14125 9.14403C4.82566 9.14403 4.56982 8.88819 4.56982 8.5726C4.56982 8.25701 4.82566 8.00117 5.14125 8.00117C5.45684 8.00117 5.71268 8.25701 5.71268 8.5726ZM7.42729 9.14403C7.74288 9.14403 7.99872 8.88819 7.99872 8.5726C7.99872 8.25701 7.74288 8.00117 7.42729 8.00117C7.1117 8.00117 6.85586 8.25701 6.85586 8.5726C6.85586 8.88819 7.1117 9.14403 7.42729 9.14403ZM9.13985 9.71513C9.13985 10.0307 8.88402 10.2866 8.56842 10.2866C8.25283 10.2866 7.99699 10.0307 7.99699 9.71513C7.99699 9.39954 8.25283 9.1437 8.56842 9.1437C8.88402 9.1437 9.13985 9.39954 9.13985 9.71513ZM6.28417 10.2866C6.59976 10.2866 6.8556 10.0307 6.8556 9.71513C6.8556 9.39954 6.59976 9.1437 6.28417 9.1437C5.96858 9.1437 5.71274 9.39954 5.71274 9.71513C5.71274 10.0307 5.96858 10.2866 6.28417 10.2866ZM4.56954 9.71513C4.56954 10.0307 4.3137 10.2866 3.99811 10.2866C3.68252 10.2866 3.42668 10.0307 3.42668 9.71513C3.42668 9.39954 3.68252 9.1437 3.99811 9.1437C4.3137 9.1437 4.56954 9.39954 4.56954 9.71513ZM1.71205 10.2866C2.02764 10.2866 2.28348 10.0307 2.28348 9.71512C2.28348 9.39953 2.02764 9.14369 1.71205 9.14369C1.39646 9.14369 1.14062 9.39953 1.14062 9.71512C1.14062 10.0307 1.39646 10.2866 1.71205 10.2866Z" fill="url(#paint0_linear_1002_35305)"/>
</g>
</g>
</g>
</g>
<defs>
<filter id="filter0_d_1002_35305" x="1.14062" y="4.57227" width="8" height="7.71484" filterUnits="userSpaceOnUse" color-interpolation-filters="sRGB">
<feFlood flood-opacity="0" result="BackgroundImageFix"/>
<feColorMatrix in="SourceAlpha" type="matrix" values="0 0 0 0 0 0 0 0 0 0 0 0 0 0 0 0 0 0 127 0" result="hardAlpha"/>
<feOffset dy="2"/>
<feColorMatrix type="matrix" values="0 0 0 0 0 0 0 0 0 0 0 0 0 0 0 0 0 0 0.06 0"/>
<feBlend mode="normal" in2="BackgroundImageFix" result="effect1_dropShadow_1002_35305"/>
<feBlend mode="normal" in="SourceGraphic" in2="effect1_dropShadow_1002_35305" result="shape"/>
</filter>
<linearGradient id="paint0_linear_1002_35305" x1="1.14062" y1="4.57227" x2="1.14062" y2="10.2866" gradientUnits="userSpaceOnUse">
<stop stop-color="white"/>
<stop offset="1" stop-color="#F0F0F0"/>
</linearGradient>
</defs>
</svg>
