<svg xmlns="http://www.w3.org/2000/svg" fill="none" viewBox="0 0 24 24">
  <path fill="currentColor"
    d="M11.145 1.158c.55-.21 1.16-.21 1.71 0l8.594 3.293A2.43 2.43 0 0 1 23 6.724v10.581a2.435 2.435 0 0 1-1.551 2.275l-8.594 3.29c-.55.173-1.16.173-1.71 0l-8.592-3.29A2.433 2.433 0 0 1 1 17.306V6.723A2.43 2.43 0 0 1 2.553 4.45l8.592-3.293Zm.975 1.948c-.077-.03-.202-.03-.24 0L3.734 6.225 12 9.506l8.267-3.281-8.147-3.12ZM3.284 17.63l7.685 2.943v-9.236L3.063 8.2v9.105a.35.35 0 0 0 .221.326Zm9.747 2.943 7.683-2.943a.352.352 0 0 0 .224-.326V8.2l-7.907 3.138v9.236Z" />
</svg>