<svg width="36" height="36" viewBox="0 0 36 36" fill="none" xmlns="http://www.w3.org/2000/svg">
<path d="M19.5 33H7.5C4.5 33 3 31.5 3 28.5V16.5C3 13.5 4.5 12 7.5 12H15V28.5C15 31.5 16.5 33 19.5 33Z" stroke="#00C088" stroke-width="2" stroke-miterlimit="10" stroke-linecap="round" stroke-linejoin="round"/>
<path d="M15.165 6C15.045 6.45 15 6.945 15 7.5V12H7.5V9C7.5 7.35 8.85 6 10.5 6H15.165Z" stroke="#00C088" stroke-width="2" stroke-miterlimit="10" stroke-linecap="round" stroke-linejoin="round"/>
<path d="M21 12V19.5" stroke="#00C088" stroke-width="2" stroke-miterlimit="10" stroke-linecap="round" stroke-linejoin="round"/>
<path d="M27 12V19.5" stroke="#00C088" stroke-width="2" stroke-miterlimit="10" stroke-linecap="round" stroke-linejoin="round"/>
<path d="M25.5 25.5H22.5C21.675 25.5 21 26.175 21 27V33H27V27C27 26.175 26.325 25.5 25.5 25.5Z" stroke="#00C088" stroke-width="2" stroke-miterlimit="10" stroke-linecap="round" stroke-linejoin="round"/>
<path d="M9 19.5V25.5" stroke="#00C088" stroke-width="2" stroke-miterlimit="10" stroke-linecap="round" stroke-linejoin="round"/>
<path d="M15 28.5V7.5C15 4.5 16.5 3 19.5 3H28.5C31.5 3 33 4.5 33 7.5V28.5C33 31.5 31.5 33 28.5 33H19.5C16.5 33 15 31.5 15 28.5Z" stroke="#00C088" stroke-width="2" stroke-miterlimit="10" stroke-linecap="round" stroke-linejoin="round"/>
</svg>
