<svg width="58" height="38" viewBox="0 0 58 38" fill="none" xmlns="http://www.w3.org/2000/svg">
<rect x="0.5" y="0.5" width="57" height="37" rx="4.5" fill="#006FCF"/>
<rect x="0.5" y="0.5" width="57" height="37" rx="4.5" stroke="#D3D3D3"/>
<path fill-rule="evenodd" clip-rule="evenodd" d="M57 8.50611H53.0415L50.9724 14.718L48.8131 8.50611H44.7648V18.1785L40.6263 8.50611H37.2977L33.1592 18.3885H36.038L36.8477 16.4121H41.1661L41.9758 18.3885H47.3737V11.5178L49.8028 18.3885H52.0518L54.4809 11.5178V18.3885H57V19.8943H53.6712L50.9724 23.0003L48.1834 19.8943H36.7578V29.7767H48.0936L50.8822 26.5767L53.6712 29.7767H57V31H53.0415L50.8822 28.5531L48.723 31H35.3185V19.7061H31L36.3979 7H41.6159L43.5051 11.3295V7H49.9827L51.0622 10.2942L52.1419 7H57V8.50611ZM57 22.059L54.571 24.7884L57 27.5178V29.7767L52.5917 24.7884L57 19.8943V22.059ZM44.7648 29.7767V27.4238H39.3668V25.918H44.6746V23.6591H39.3668V22.1532H44.7648V19.8943L49.2629 24.7884L44.7648 29.7767ZM37.6574 14.2472L38.9171 11.0473L40.1765 14.2472H37.6574Z" fill="white"/>
</svg>
