<svg width="32" height="32" viewBox="0 0 32 32" fill="none" xmlns="http://www.w3.org/2000/svg">
<g id="Huge-icon/finance and payment/outline/bank">
<path id="Rectangle 579" d="M4.04423 13.3332L27.9564 13.3332C29.3166 13.3332 29.8507 11.5313 28.719 10.7606L17.5254 3.13817C16.6019 2.50928 15.3988 2.50928 14.4752 3.13817L3.28168 10.7606C2.14997 11.5313 2.68409 13.3332 4.04423 13.3332Z" stroke="#5E6278" stroke-width="2"/>
<rect id="Rectangle 580" x="5.33301" y="13.3335" width="6.66667" height="10.6667" stroke="#5E6278" stroke-width="2"/>
<rect id="Rectangle 581" x="20" y="13.3335" width="6.66667" height="10.6667" stroke="#5E6278" stroke-width="2"/>
<path id="Rectangle 582" d="M26.0483 24C26.4271 24 26.7733 24.214 26.9427 24.5528L28.6094 27.8861C28.9419 28.551 28.4584 29.3333 27.715 29.3333L4.28437 29.3333C3.54099 29.3333 3.0575 28.551 3.38995 27.8861L5.05661 24.5528C5.22601 24.214 5.57227 24 5.95104 24L26.0483 24Z" stroke="#5E6278" stroke-width="2"/>
</g>
</svg>
