<svg xmlns="http://www.w3.org/2000/svg" fill="none" viewBox="0 0 28 28">
  <path fill="#5E6278" d="M3.528 4.12c-.2 0-.361.201-.361.36v3.6c0 .639-.486 1.08-1.084 1.08C1.485 9.16 1 8.719 1 8.08v-3.6C1 3.128 2.132 2 3.528 2h3.61c.601 0 1.084.483 1.084 1.04 0 .636-.483 1.08-1.083 1.08H3.528ZM7.5 8.8v10.36c0 .639-.483 1.08-1.083 1.08s-1.084-.441-1.084-1.08V8.8c0-.558.483-1.08 1.084-1.08.6 0 1.083.522 1.083 1.08Zm1.444-.36c0-.356.325-.72.723-.72.397 0 .722.364.722.72v11.08c0 .436-.325.72-.722.72-.398 0-.723-.284-.723-.72V8.44Zm12.278 0c0-.356.325-.72.722-.72.398 0 .723.364.723.72v11.08c0 .436-.325.72-.723.72-.397 0-.722-.284-.722-.72V8.44Zm-9.389.36c0-.558.483-1.08 1.084-1.08.6 0 1.083.522 1.083 1.08v10.36c0 .639-.483 1.08-1.083 1.08s-1.084-.441-1.084-1.08V8.8Zm7.945 0v10.36c0 .639-.483 1.08-1.084 1.08-.6 0-1.083-.441-1.083-1.08V8.8c0-.558.483-1.08 1.083-1.08s1.084.522 1.084 1.08Zm5.055-4.32c0-.159-.162-.36-.36-.36H20.86c-.6 0-1.083-.444-1.083-1.08 0-.557.483-1.04 1.083-1.04h3.611C25.867 2 27 3.128 27 4.48v3.6c0 .639-.483 1.08-1.083 1.08s-1.084-.441-1.084-1.08v-3.6ZM7.14 23.84c.6 0 1.083.522 1.083 1.08 0 .639-.483 1.08-1.083 1.08H3.528C2.132 26 1 24.911 1 23.48v-3.6c0-.558.485-1.08 1.083-1.08s1.084.522 1.084 1.08v3.6c0 .238.161.36.36.36H7.14Zm17.694-3.96c0-.558.483-1.08 1.084-1.08.6 0 1.083.522 1.083 1.08v3.6c0 1.431-1.133 2.52-2.528 2.52h-3.61c-.601 0-1.084-.441-1.084-1.08 0-.558.483-1.08 1.083-1.08h3.611c.199 0 .361-.122.361-.36v-3.6Z"/>
</svg>
