<svg xmlns="http://www.w3.org/2000/svg" fill="none" viewBox="0 0 36 36">
  <path fill="currentColor"
    d="M29.572 20.893h-7.714v2.893h7.714c.532 0 .965.432.965.964v4.821a.965.965 0 0 1-.965.965H6.43a.965.965 0 0 1-.964-.965V24.75c0-.53.433-.964.964-.964h7.715v-2.893H6.429a3.857 3.857 0 0 0-3.857 3.857v4.821a3.857 3.857 0 0 0 3.857 3.857h23.143a3.857 3.857 0 0 0 3.857-3.857V24.75a3.86 3.86 0 0 0-3.857-3.857Zm-18.797-7.709 5.78-5.674v16.276a1.447 1.447 0 0 0 2.892 0V7.51l5.727 5.727c.282.285.65.424 1.023.424a1.446 1.446 0 0 0 1.023-2.47l-8.196-8.196a1.446 1.446 0 0 0-2.046 0l-8.196 8.196a1.446 1.446 0 0 0 0 2.046c.565.565 1.48.562 1.993-.053Zm17.833 13.977a1.446 1.446 0 1 0-2.893 0 1.446 1.446 0 0 0 2.893 0Z" />
</svg>