<svg xmlns="http://www.w3.org/2000/svg" fill="none" viewBox="0 0 28 28">
  <path fill="#5E6278" d="M19.417 6.281a.823.823 0 0 0-.834-.812h-2.5a.824.824 0 0 0-.833.812V8.72c0 .447.375.812.833.812h2.5c.46 0 .834-.365.834-.812V6.28Zm-10-.812a.824.824 0 0 0-.834.812V8.72c0 .447.375.812.834.812h2.5a.826.826 0 0 0 .833-.812V6.28a.824.824 0 0 0-.833-.812h-2.5Zm10 7.312a.824.824 0 0 0-.834-.812h-2.5a.825.825 0 0 0-.833.812v2.438c0 .447.375.812.833.812h2.5c.46 0 .834-.365.834-.812V12.78Zm-10-.812a.826.826 0 0 0-.834.812v2.438c0 .447.375.812.834.812h2.5a.825.825 0 0 0 .833-.812V12.78a.825.825 0 0 0-.833-.812h-2.5ZM24 4.25C24 2.455 22.508 1 20.667 1H7.333C5.495 1 4 2.455 4 4.25v19.5C4 25.543 5.495 27 7.333 27h13.334C22.507 27 24 25.543 24 23.75V4.25Zm-2.5 0v19.5a.824.824 0 0 1-.833.813H16.5v-3.25c0-1.346-1.12-2.438-2.5-2.438s-2.5 1.092-2.5 2.438v3.25H7.333a.826.826 0 0 1-.833-.813V4.25c0-.449.375-.813.833-.813h13.334c.46 0 .833.364.833.813Z"/>
</svg>
