<svg xmlns="http://www.w3.org/2000/svg" fill="none" viewBox="0 0 22 22">
  <path fill="#0FAC7E" d="M5.5 1.833a1.839 1.839 0 0 0-1.834 1.834v14.666c0 1.009.825 1.834 1.833 1.834h11a1.839 1.839 0 0 0 1.834-1.834v-11l-5.5-5.5m-.917 1.375 5.042 5.042h-5.042m-2.86.23h1.137v.861a1.148 1.148 0 0 1 1.155 1.146v1.888l-.11.12.816 1.411c.293-.458.44-.99.43-1.53h1.155c0 .953-.348 1.878-.962 2.612l1.53 2.658v1.146l-.99-.569-1.42-2.465a3.964 3.964 0 0 1-2.173.641c-.77 0-1.521-.22-2.172-.641L6.03 18.224l-.99.568v-1.146l2.97-5.152-.11-.119v-1.888c0-.633.523-1.155 1.155-1.146m.568 1.146a.715.715 0 0 0-.504 1.219.713.713 0 0 0 1.22-.504.716.716 0 0 0-.716-.715Zm-.77 2.841-.825 1.44a2.85 2.85 0 0 0 3.19 0l-.825-1.44c-.43.422-1.109.422-1.54 0Z"/>
</svg>
