<svg viewBox="0 0 28 28" fill="none" xmlns="http://www.w3.org/2000/svg">
<path d="M8.67984 3.33317V0.666504M13.9998 3.33317V0.666504M19.3332 3.33317V0.666504M24.6665 8.6665H27.3332M24.6665 13.9998H27.3332M24.6665 19.3332H27.3332M19.3332 24.6665V27.3332M14.0132 24.6665V27.3332M8.67984 24.6665V27.3332M0.666504 8.6665H3.33317M0.666504 13.9998H3.33317M0.666504 19.3332H3.33317M3.8665 20.9332L9.17142 16.9975C10.0215 16.3673 11.2482 16.4387 12.0122 17.164L12.3673 17.5088C13.2066 18.3054 14.5624 18.3054 15.4017 17.5088L19.8781 13.264C20.7174 12.4673 22.0732 12.4673 22.9125 13.264L24.6665 14.9286M10.7998 24.6665H17.1998C22.5332 24.6665 24.6665 22.5332 24.6665 17.1998V10.7998C24.6665 5.4665 22.5332 3.33317 17.1998 3.33317H10.7998C5.4665 3.33317 3.33317 5.4665 3.33317 10.7998V17.1998C3.33317 22.5332 5.4665 24.6665 10.7998 24.6665ZM12.6665 9.99984C12.6665 11.4726 11.4726 12.6665 9.99984 12.6665C8.52708 12.6665 7.33317 11.4726 7.33317 9.99984C7.33317 8.52708 8.52708 7.33317 9.99984 7.33317C11.4726 7.33317 12.6665 8.52708 12.6665 9.99984Z" stroke="#9396A5" stroke-linecap="round" stroke-linejoin="round"/>
</svg>
