<svg width="46" height="30" viewBox="0 0 46 30" fill="none" xmlns="http://www.w3.org/2000/svg">
<rect x="0.5" y="0.5" width="45" height="29" rx="4.5" fill="white"/>
<rect x="0.5" y="0.5" width="45" height="29" rx="4.5" stroke="#D3D3D3"/>
<path d="M26.2 9.25014H19.8008V20.7498H26.2V9.25014Z" fill="#FF5B5B"/>
<path d="M20.2071 15C20.2061 13.8925 20.4571 12.7992 20.941 11.8031C21.4249 10.8069 22.1292 9.9339 23.0004 9.25014C21.9215 8.40211 20.6258 7.87474 19.2614 7.72829C17.8969 7.58185 16.5188 7.82223 15.2846 8.42199C14.0503 9.02174 13.0097 9.95666 12.2816 11.1199C11.5536 12.2831 11.1675 13.6277 11.1675 15C11.1675 16.3722 11.5536 17.7168 12.2816 18.88C13.0097 20.0433 14.0503 20.9782 15.2846 21.5779C16.5188 22.1777 17.8969 22.4181 19.2614 22.2716C20.6258 22.1252 21.9215 21.5978 23.0004 20.7498C22.1292 20.066 21.425 19.193 20.941 18.1968C20.4571 17.2007 20.2061 16.1075 20.2071 15Z" fill="#E82E2E"/>
<path d="M34.833 15C34.833 16.3722 34.447 17.7168 33.719 18.88C32.991 20.0432 31.9504 20.9781 30.7161 21.5779C29.4819 22.1777 28.1038 22.4181 26.7394 22.2716C25.3749 22.1252 24.0793 21.5978 23.0004 20.7498C23.8709 20.0653 24.5745 19.1922 25.0584 18.1962C25.5423 17.2001 25.7937 16.1073 25.7937 15C25.7937 13.8926 25.5423 12.7998 25.0584 11.8038C24.5745 10.8077 23.8709 9.93459 23.0004 9.25014C24.0793 8.40211 25.3749 7.87473 26.7394 7.72829C28.1038 7.58185 29.4819 7.82224 30.7161 8.422C31.9504 9.02176 32.991 9.95668 33.719 11.1199C34.447 12.2831 34.833 13.6277 34.833 15Z" fill="#FFA133"/>
<path d="M34.1352 19.5318V19.2964H34.2302V19.2484H33.9884V19.2964H34.0834V19.5318H34.1352ZM34.6046 19.5318V19.2479H34.5305L34.4453 19.4432L34.36 19.2479H34.2858V19.5318H34.3382V19.3177L34.4181 19.5023H34.4724L34.5523 19.3172V19.5318H34.6046Z" fill="#FFA133"/>
</svg>
