<svg width="46" height="30" viewBox="0 0 46 30" fill="none" xmlns="http://www.w3.org/2000/svg">
<rect x="0.5" y="0.5" width="45" height="29" rx="4.5" fill="white"/>
<rect x="0.5" y="0.5" width="45" height="29" rx="4.5" stroke="#D3D3D3"/>
<path d="M22.8529 10.2744L20.8256 19.7508H18.3743L20.4018 10.2744H22.8529ZM33.1667 16.3934L34.4573 12.8347L35.1999 16.3934H33.1667ZM35.9018 19.7508H38.1693L36.1906 10.2744H34.0977C33.6274 10.2744 33.2306 10.548 33.0539 10.9697L29.3761 19.7508H31.9505L32.4615 18.3357H35.6066L35.9018 19.7508ZM29.5039 16.6567C29.5144 14.1556 26.0451 14.0179 26.0691 12.9007C26.0763 12.5602 26.4005 12.1991 27.1086 12.1064C27.4605 12.0605 28.4277 12.0254 29.5261 12.5308L29.9562 10.5213C29.3662 10.3071 28.6071 10.1011 27.6629 10.1011C25.2401 10.1011 23.5346 11.3893 23.5202 13.2339C23.5049 14.598 24.7377 15.3592 25.6666 15.8127C26.6215 16.2773 26.9425 16.5748 26.9383 16.9902C26.932 17.6264 26.1764 17.9065 25.4716 17.9176C24.2389 17.9371 23.5235 17.585 22.9534 17.3193L22.5092 19.3957C23.0817 19.6587 24.139 19.8873 25.2359 19.899C27.8108 19.899 29.4955 18.6267 29.5039 16.6567ZM19.35 10.2744L15.3783 19.7508H12.7865L10.8322 12.188C10.7134 11.7222 10.6102 11.5519 10.2494 11.3554C9.66065 11.036 8.68736 10.7357 7.83105 10.5498L7.88954 10.2744H12.0607C12.5922 10.2744 13.0706 10.6284 13.1912 11.2405L14.2235 16.7245L16.7745 10.2744H19.35Z" fill="#005AB5"/>
</svg>
