<svg width="46" height="30" viewBox="0 0 46 30" fill="none" xmlns="http://www.w3.org/2000/svg">
<rect x="0.5" y="0.5" width="45" height="29" rx="4.5" fill="#006FCF"/>
<rect x="0.5" y="0.5" width="45" height="29" rx="4.5" stroke="#D3D3D3"/>
<path fill-rule="evenodd" clip-rule="evenodd" d="M45 5.88402H41.4025L39.5222 11.2802L37.5599 5.88402H33.8808V14.2863L30.1198 5.88402H27.0949L23.3339 14.4687H25.9501L26.6859 12.7519H30.6104L31.3462 14.4687H36.2518V8.50023L38.4593 14.4687H40.5032L42.7106 8.50023V14.4687H45V15.7768H41.9748L39.5222 18.4749L36.9876 15.7768H26.6042V24.3615H36.906L39.4403 21.5817L41.9748 24.3615H45V25.4241H41.4025L39.4403 23.2986L37.478 25.4241H25.2961V15.6133H21.3716L26.2771 4.57568H31.0191L32.736 8.33668V4.57568H38.6228L39.6038 7.43732L40.5851 4.57568H45V5.88402ZM45 17.6572L42.7925 20.0282L45 22.3992V24.3615L40.9938 20.0282L45 15.7768V17.6572ZM33.8808 24.3615V22.3175H28.9752V21.0094H33.7989V19.0472H28.9752V17.7391H33.8808V15.7768L37.9686 20.0282L33.8808 24.3615ZM27.4217 10.8712L28.5665 8.09149L29.7111 10.8712H27.4217Z" fill="white"/>
</svg>
