<svg width="120" height="120" viewBox="0 0 120 120" fill="none" xmlns="http://www.w3.org/2000/svg">
<path d="M50.0001 93.3332H70.0001C86.6668 93.3332 93.3334 86.6665 93.3334 69.9998V49.9998C93.3334 33.3332 86.6668 26.6665 70.0001 26.6665H50.0001C33.3334 26.6665 26.6667 33.3332 26.6667 49.9998V69.9998C26.6667 86.6665 33.3334 93.3332 50.0001 93.3332Z" stroke="#D3D3D3" stroke-width="4" stroke-linecap="round" stroke-linejoin="round"/>
<path d="M43.375 26.6668V18.3335" stroke="#D3D3D3" stroke-width="4" stroke-linecap="round" stroke-linejoin="round"/>
<path d="M60 26.6668V18.3335" stroke="#D3D3D3" stroke-width="4" stroke-linecap="round" stroke-linejoin="round"/>
<path d="M76.6667 26.6668V18.3335" stroke="#D3D3D3" stroke-width="4" stroke-linecap="round" stroke-linejoin="round"/>
<path d="M93.3333 43.3335H101.667" stroke="#D3D3D3" stroke-width="4" stroke-linecap="round" stroke-linejoin="round"/>
<path d="M93.3333 60H101.667" stroke="#D3D3D3" stroke-width="4" stroke-linecap="round" stroke-linejoin="round"/>
<path d="M93.3333 76.6665H101.667" stroke="#D3D3D3" stroke-width="4" stroke-linecap="round" stroke-linejoin="round"/>
<path d="M76.6667 93.3335V101.667" stroke="#D3D3D3" stroke-width="4" stroke-linecap="round" stroke-linejoin="round"/>
<path d="M60.0417 93.3335V101.667" stroke="#D3D3D3" stroke-width="4" stroke-linecap="round" stroke-linejoin="round"/>
<path d="M43.375 93.3335V101.667" stroke="#D3D3D3" stroke-width="4" stroke-linecap="round" stroke-linejoin="round"/>
<path d="M18.3333 43.3335H26.6666" stroke="#D3D3D3" stroke-width="4" stroke-linecap="round" stroke-linejoin="round"/>
<path d="M18.3333 60H26.6666" stroke="#D3D3D3" stroke-width="4" stroke-linecap="round" stroke-linejoin="round"/>
<path d="M18.3333 76.6665H26.6666" stroke="#D3D3D3" stroke-width="4" stroke-linecap="round" stroke-linejoin="round"/>
<path d="M28.3333 81.6668L44.9111 69.3679C47.5676 67.3986 51.401 67.6215 53.7885 69.8881L54.8982 70.9656C57.521 73.4552 61.758 73.4552 64.3808 70.9656L78.3695 57.7006C80.9923 55.2111 85.2293 55.2111 87.8521 57.7006L93.3333 62.9026" stroke="#D3D3D3" stroke-width="4" stroke-linecap="round" stroke-linejoin="round"/>
<path d="M47.5001 55.8332C52.1025 55.8332 55.8334 52.1022 55.8334 47.4998C55.8334 42.8975 52.1025 39.1665 47.5001 39.1665C42.8977 39.1665 39.1667 42.8975 39.1667 47.4998C39.1667 52.1022 42.8977 55.8332 47.5001 55.8332Z" stroke="#D3D3D3" stroke-width="4" stroke-linecap="round" stroke-linejoin="round"/>
</svg>
