<svg xmlns="http://www.w3.org/2000/svg" fill="none" viewBox="0 0 28 28">
  <path fill="currentColor"
    d="M2.093 2C1.487 2 1 2.502 1 3.125S1.487 4.25 2.093 4.25h2.071c.173 0 .323.127.36.305l2.349 12.703C7.169 18.852 8.52 20 10.09 20h13.125c.606 0 1.093-.502 1.093-1.125s-.487-1.125-1.093-1.125H10.091c-.523 0-.974-.384-1.074-.914L8.77 15.5h13.134c1.484 0 2.782-1.022 3.164-2.498l1.867-7.14c.314-1.19-.56-2.362-1.758-2.362H6.468C6.053 2.6 5.17 2 4.164 2H2.093Zm4.875 3.75h17.737l-1.744 6.666c-.127.492-.56.834-1.056.834H8.357l-1.389-7.5ZM9.012 26c.58 0 1.136-.237 1.546-.659.41-.422.64-.994.64-1.591s-.23-1.169-.64-1.591a2.154 2.154 0 0 0-1.546-.659c-.58 0-1.135.237-1.545.659-.41.422-.64.994-.64 1.591s.23 1.169.64 1.591c.41.422.966.659 1.545.659Zm15.297-2.25c0-.597-.23-1.169-.64-1.591a2.154 2.154 0 0 0-1.545-.659c-.58 0-1.136.237-1.546.659-.41.422-.64.994-.64 1.591s.23 1.169.64 1.591c.41.422.966.659 1.546.659.58 0 1.135-.237 1.545-.659.41-.422.64-.994.64-1.591Z" />
</svg>