<svg width="25" height="24" viewBox="0 0 25 24" fill="none" xmlns="http://www.w3.org/2000/svg">
<g id="Huge-icon/ecommerce/outline/cart">
<path id="Ellipse 653" d="M11.666 20.5C11.666 21.3284 10.9944 22 10.166 22C9.33759 22 8.66602 21.3284 8.66602 20.5C8.66602 19.6716 9.33759 19 10.166 19C10.9944 19 11.666 19.6716 11.666 20.5Z" stroke="white" stroke-width="1.5"/>
<path id="Ellipse 654" d="M20.666 20.5C20.666 21.3284 19.9944 22 19.166 22C18.3376 22 17.666 21.3284 17.666 20.5C17.666 19.6716 18.3376 19 19.166 19C19.9944 19 20.666 19.6716 20.666 20.5Z" stroke="white" stroke-width="1.5"/>
<path id="Rectangle 1055" d="M6.66602 4H18.666C20.8752 4 22.666 5.79086 22.666 8V13C22.666 15.2091 20.8752 17 18.666 17H10.666C8.45688 17 6.66602 15.2091 6.66602 13V4ZM6.66602 4C6.66602 2.89543 5.77059 2 4.66602 2H2.66602M6.66602 8H22.166" stroke="white" stroke-width="1.5" stroke-linecap="round" stroke-linejoin="round"/>
</g>
</svg>
