<svg width="16" height="16" viewBox="0 0 16 16" fill="none" xmlns="http://www.w3.org/2000/svg">
<g id="Huge-icon/interface/solid/check-circle">
<path id="Subtract" fill-rule="evenodd" clip-rule="evenodd" d="M8.00065 14.6668C11.6825 14.6668 14.6673 11.6821 14.6673 8.00016C14.6673 4.31826 11.6825 1.3335 8.00065 1.3335C4.31875 1.3335 1.33398 4.31826 1.33398 8.00016C1.33398 11.6821 4.31875 14.6668 8.00065 14.6668ZM11.062 6.30716C11.2315 6.08918 11.1923 5.77504 10.9743 5.60551C10.7563 5.43598 10.4422 5.47524 10.2726 5.69322L7.60131 9.12779C7.54191 9.20416 7.43018 9.21407 7.35826 9.14935L5.66847 7.62854C5.46322 7.44381 5.14707 7.46045 4.96234 7.6657C4.77761 7.87096 4.79425 8.1871 4.99951 8.37183L6.68929 9.89264C7.19271 10.3457 7.97485 10.2763 8.39066 9.74173L11.062 6.30716Z" fill="#00D395"/>
</g>
</svg>
