<svg xmlns="http://www.w3.org/2000/svg" fill="none" viewBox="0 0 20 20">
  <path fill="currentColor"
    d="M8.729 3.038a7.266 7.266 0 0 1 2.578 0l.29 1.194c.139.579.53 1.014.982 1.273l.048.027c.449.262 1.024.385 1.595.218l1.177-.347c.252.296.483.612.684.946l.136.235c.183.333.343.687.472 1.051l-.89.847c-.433.409-.613.967-.61 1.487v.055c-.003.52.18 1.075.61 1.487l.89.847c-.129.364-.289.718-.472 1.051l-.136.235c-.201.334-.432.65-.684.946l-1.177-.347a2.01 2.01 0 0 0-1.595.218l-.048.027c-.449.259-.843.694-.983 1.273l-.289 1.194a7.291 7.291 0 0 1-2.578 0l-.29-1.194c-.139-.579-.53-1.014-.982-1.273l-.048-.027c-.449-.262-1.024-.385-1.595-.218l-1.173.354a7.19 7.19 0 0 1-.684-.946l-.136-.238a7.13 7.13 0 0 1-.473-1.052l.891-.847c.432-.408.612-.966.61-1.487v-.054a2.033 2.033 0 0 0-.61-1.487l-.89-.847c.128-.365.288-.718.472-1.052l.136-.235c.2-.333.432-.65.684-.946l1.176.347c.572.17 1.147.048 1.596-.217l.047-.028c.45-.258.844-.694.983-1.272l.29-1.195-.004-.003Zm1.29-1.749a8.99 8.99 0 0 0-1.695.163c-.268.051-.741.208-1 .684a1.642 1.642 0 0 0-.156.402l-.317 1.31a.408.408 0 0 1-.204.238c-.02.014-.04.024-.064.038-.13.074-.238.078-.31.057l-1.289-.38a1.574 1.574 0 0 0-.415-.065c-.547-.017-.918.32-1.098.524-.34.388-.647.81-.915 1.255l-.007.014-.143.248-.007.014a8.526 8.526 0 0 0-.622 1.405c-.092.255-.194.739.085 1.201.075.123.166.239.272.34l.98.933c.05.051.101.146.101.296v.075a.415.415 0 0 1-.102.296l-.98.925a1.734 1.734 0 0 0-.271.34c-.28.463-.177.947-.089 1.202.167.49.374.96.623 1.405l.007.014.146.252.007.013c.268.446.574.864.915 1.252.18.204.554.541 1.098.524.14-.003.28-.027.415-.064l1.293-.381c.068-.02.18-.017.31.057.02.014.04.024.064.038.129.075.187.167.204.238l.316 1.31c.034.143.089.28.157.402.262.476.734.63 1 .684a8.69 8.69 0 0 0 1.694.163c.578 0 1.142-.058 1.693-.163.269-.051.742-.208 1-.684.068-.126.123-.259.157-.402l.316-1.31c.017-.068.075-.163.204-.238.02-.014.041-.024.065-.037.129-.075.238-.079.31-.058l1.292.38c.136.042.275.062.415.065.547.017.918-.32 1.098-.524.34-.388.647-.81.915-1.255l.007-.014.143-.248.007-.014c.248-.446.456-.915.622-1.405.089-.259.19-.742-.092-1.205a1.734 1.734 0 0 0-.272-.34l-.98-.929c-.05-.051-.101-.146-.101-.296v-.075c0-.146.05-.245.102-.296l.976-.929c.105-.102.197-.218.272-.34.279-.463.177-.946.092-1.205a8.52 8.52 0 0 0-.623-1.405l-.006-.014-.143-.248-.007-.014a8.98 8.98 0 0 0-.915-1.255c-.18-.204-.554-.541-1.099-.524-.14.003-.279.027-.415.064l-1.296.388c-.068.02-.18.017-.309-.057-.02-.014-.04-.024-.065-.038-.129-.075-.187-.167-.204-.238l-.316-1.31a1.594 1.594 0 0 0-.156-.402c-.262-.476-.735-.63-1-.684a8.927 8.927 0 0 0-1.69-.163ZM8.384 10a1.634 1.634 0 1 1 3.268 0 1.634 1.634 0 0 1-3.268 0Zm4.898 0a3.267 3.267 0 0 0-3.265-3.267A3.265 3.265 0 0 0 6.753 10a3.267 3.267 0 0 0 3.265 3.267A3.264 3.264 0 0 0 13.283 10Z" />
</svg>