<svg xmlns="http://www.w3.org/2000/svg" fill="none" viewBox="0 0 22 22">
  <path fill="currentColor"
    d="M3.5 19.125h8.75a.627.627 0 0 0 .625-.625V16h1.875v2.5c0 1.379-1.121 2.5-2.5 2.5H3.5C2.12 21 1 19.879 1 18.5V9.75c0-1.379 1.12-2.5 2.5-2.5H6v1.875H3.5a.626.626 0 0 0-.625.625v8.75c0 .344.28.625.625.625ZM7.25 3.5c0-1.38 1.121-2.5 2.5-2.5h8.75C19.879 1 21 2.12 21 3.5v8.75c0 1.379-1.121 2.5-2.5 2.5H9.75a2.502 2.502 0 0 1-2.5-2.5V3.5Zm2.5 9.375h8.75a.627.627 0 0 0 .625-.625V3.5a.626.626 0 0 0-.625-.625H9.75a.626.626 0 0 0-.625.625v8.75c0 .344.281.625.625.625Z" />
</svg>