<svg xmlns="http://www.w3.org/2000/svg" fill="none" viewBox="0 0 36 36">
  <path fill="currentColor"
    d="M3.777 6.824a3.048 3.048 0 0 1 3.048-3.048h6.096a3.048 3.048 0 0 1 3.048 3.048v10.16a3.049 3.049 0 0 1-3.048 3.047H6.825a3.048 3.048 0 0 1-3.048-3.047V6.824Zm3.048 10.16h6.096V6.824H6.825v10.16Zm13.207 2.031a3.049 3.049 0 0 1 3.048-3.047h6.096a3.049 3.049 0 0 1 3.048 3.047v10.16a3.049 3.049 0 0 1-3.048 3.048H23.08a3.049 3.049 0 0 1-3.048-3.048v-10.16Zm3.048 10.16h6.096v-10.16H23.08v10.16Zm-10.16-7.112a3.049 3.049 0 0 1 3.049 3.048v4.064a3.049 3.049 0 0 1-3.048 3.048H6.825a3.048 3.048 0 0 1-3.048-3.048v-4.064a3.048 3.048 0 0 1 3.048-3.048h6.096Zm0 3.048H6.826v4.064h6.096v-4.064Zm7.112-18.287a3.048 3.048 0 0 1 3.048-3.048h6.096a3.048 3.048 0 0 1 3.048 3.048v4.064a3.049 3.049 0 0 1-3.048 3.048H23.08a3.049 3.049 0 0 1-3.048-3.048V6.824Zm3.048 4.064h6.096V6.824H23.08v4.064Z" />
</svg>
