<svg width="25" height="24" viewBox="0 0 25 24" fill="none" xmlns="http://www.w3.org/2000/svg">
<g id="huge-icon/shipping and delivery/outline/fast delivery" clip-path="url(#clip0_264_33636)">
<path id="Vector 1980" d="M10.333 8L8.33301 8" stroke="currentColor" stroke-width="1.5" stroke-linecap="round" stroke-linejoin="round"/>
<path id="Vector 1981" d="M10.333 12L6.33301 12" stroke="currentColor" stroke-width="1.5" stroke-linecap="round" stroke-linejoin="round"/>
<path id="Vector" d="M15.333 18L15.3329 18.75H15.333V18ZM19.91 7.54093L20.423 6.99377L20.423 6.99377L19.91 7.54093ZM22.7009 10.1574L22.1879 10.7045L22.7009 10.1574ZM21.333 17.25C20.9188 17.25 20.583 17.5858 20.583 18C20.583 18.4142 20.9188 18.75 21.333 18.75V17.25ZM8.33301 17.25C7.91879 17.25 7.58301 17.5858 7.58301 18C7.58301 18.4142 7.91879 18.75 8.33301 18.75V17.25ZM5.33301 4.75H11.333V3.25H5.33301V4.75ZM14.583 7V18H16.083V7H14.583ZM2.08301 14V8H0.583008V14H2.08301ZM11.333 4.75C12.3688 4.75 13.2005 4.9389 13.7507 5.29908C14.2522 5.62738 14.583 6.13539 14.583 7H16.083C16.083 5.65547 15.5184 4.66349 14.5722 4.04407C13.6747 3.45653 12.5064 3.25 11.333 3.25V4.75ZM5.33301 3.25C2.70966 3.25 0.583008 5.37665 0.583008 8H2.08301C2.08301 6.20507 3.53808 4.75 5.33301 4.75V3.25ZM15.333 7.75H18.5421V6.25H15.333V7.75ZM19.397 8.08808L22.1879 10.7045L23.2138 9.61024L20.423 6.99377L19.397 8.08808ZM22.583 11.6165V16H24.083V11.6165H22.583ZM22.1879 10.7045C22.44 10.9409 22.583 11.271 22.583 11.6165H24.083C24.083 10.8563 23.7684 10.1301 23.2138 9.61024L22.1879 10.7045ZM21.333 18.75C22.8518 18.75 24.083 17.5188 24.083 16H22.583C22.583 16.6904 22.0234 17.25 21.333 17.25V18.75ZM18.5421 7.75C18.8597 7.75 19.1654 7.87088 19.397 8.08808L20.423 6.99377C19.9132 6.51593 19.2408 6.25 18.5421 6.25V7.75ZM15.333 18.75H16.333V17.25H15.333V18.75ZM3.51923 16.7735C2.82774 16.5962 2.5309 16.3087 2.3603 15.9565C2.15745 15.5377 2.08301 14.9274 2.08301 14H0.583008C0.583008 14.9378 0.644976 15.8561 1.01034 16.6104C1.40794 17.4312 2.1111 17.961 3.14679 18.2265L3.51923 16.7735ZM7.58301 17.5C7.58301 18.4665 6.79951 19.25 5.83301 19.25V20.75C7.62793 20.75 9.08301 19.2949 9.08301 17.5H7.58301ZM5.83301 19.25C4.86651 19.25 4.08301 18.4665 4.08301 17.5H2.58301C2.58301 19.2949 4.03808 20.75 5.83301 20.75V19.25ZM4.08301 17.5C4.08301 16.5335 4.86651 15.75 5.83301 15.75V14.25C4.03808 14.25 2.58301 15.7051 2.58301 17.5H4.08301ZM5.83301 15.75C6.79951 15.75 7.58301 16.5335 7.58301 17.5H9.08301C9.08301 15.7051 7.62793 14.25 5.83301 14.25V15.75ZM20.583 17.5C20.583 18.4665 19.7995 19.25 18.833 19.25V20.75C20.6279 20.75 22.083 19.2949 22.083 17.5H20.583ZM18.833 19.25C17.8665 19.25 17.083 18.4665 17.083 17.5H15.583C15.583 19.2949 17.0381 20.75 18.833 20.75V19.25ZM17.083 17.5C17.083 16.5335 17.8665 15.75 18.833 15.75V14.25C17.0381 14.25 15.583 15.7051 15.583 17.5H17.083ZM18.833 15.75C19.7995 15.75 20.583 16.5335 20.583 17.5H22.083C22.083 15.7051 20.6279 14.25 18.833 14.25V15.75ZM15.3332 17.25C14.0395 17.2497 9.57522 17.25 8.33301 17.25V18.75C9.57552 18.75 14.0393 18.7497 15.3329 18.75L15.3332 17.25Z" fill="currentColor"/>
</g>
<defs>
<clipPath id="clip0_264_33636">
<rect width="24" height="24" fill="currentColor" transform="translate(0.333008)"/>
</clipPath>
</defs>
</svg>
