<svg width="20" height="20" viewBox="0 0 20 20" fill="none" xmlns="http://www.w3.org/2000/svg">
<g id="huge-icon/shipping and delivery/outline/fast delivery">
<path id="Vector 1980" d="M8.33366 6.6665L6.66699 6.6665" stroke="currentColor" stroke-width="1.5" stroke-linecap="round" stroke-linejoin="round"/>
<path id="Vector 1981" d="M8.33333 10L5 10" stroke="currentColor" stroke-width="1.5" stroke-linecap="round" stroke-linejoin="round"/>
<path id="Vector" d="M12.4997 15.0002L12.4995 15.7502H12.4997V15.0002ZM16.3138 6.28427L16.8268 5.73711L16.8268 5.73711L16.3138 6.28427ZM18.6396 8.46465L18.1266 9.01181L18.1266 9.01181L18.6396 8.46465ZM17.4997 14.2502C17.0855 14.2502 16.7497 14.5859 16.7497 15.0002C16.7497 15.4144 17.0855 15.7502 17.4997 15.7502V14.2502ZM6.66634 14.2502C6.25213 14.2502 5.91634 14.5859 5.91634 15.0002C5.91634 15.4144 6.25213 15.7502 6.66634 15.7502V14.2502ZM4.16634 4.0835H9.16634V2.5835H4.16634V4.0835ZM11.7497 5.8335V15.0002H13.2497V5.8335H11.7497ZM1.58301 11.6668V6.66683H0.0830078V11.6668H1.58301ZM9.16634 4.0835C10.018 4.0835 10.683 4.23945 11.1126 4.52064C11.4934 4.76997 11.7497 5.15298 11.7497 5.8335H13.2497C13.2497 4.67306 12.7597 3.80608 11.9341 3.26564C11.1573 2.75707 10.1556 2.5835 9.16634 2.5835V4.0835ZM4.16634 2.5835C1.91118 2.5835 0.0830078 4.41167 0.0830078 6.66683H1.58301C1.58301 5.24009 2.73961 4.0835 4.16634 4.0835V2.5835ZM12.4997 6.5835H15.1739V5.0835H12.4997V6.5835ZM15.8009 6.83142L18.1266 9.01181L19.1525 7.9175L16.8268 5.73711L15.8009 6.83142ZM18.4163 9.68055V13.3335H19.9163V9.68055H18.4163ZM18.1266 9.01181C18.3115 9.1851 18.4163 9.42717 18.4163 9.68055H19.9163C19.9163 9.01256 19.6399 8.37436 19.1525 7.9175L18.1266 9.01181ZM17.4997 15.7502C18.8344 15.7502 19.9163 14.6682 19.9163 13.3335H18.4163C18.4163 13.8398 18.0059 14.2502 17.4997 14.2502V15.7502ZM15.1739 6.5835C15.4068 6.5835 15.631 6.67214 15.8009 6.83142L16.8268 5.73711C16.3789 5.31719 15.7879 5.0835 15.1739 5.0835V6.5835ZM12.4997 15.7502H13.333V14.2502H12.4997V15.7502ZM2.68589 13.857C2.13834 13.7166 1.92483 13.4972 1.80158 13.2427C1.64608 12.9217 1.58301 12.4388 1.58301 11.6668H0.0830078C0.0830078 12.4492 0.133609 13.2402 0.451618 13.8967C0.801868 14.6197 1.4217 15.0814 2.31346 15.31L2.68589 13.857ZM5.91634 14.5835C5.91634 15.3199 5.31939 15.9168 4.58301 15.9168V17.4168C6.14781 17.4168 7.41634 16.1483 7.41634 14.5835H5.91634ZM4.58301 15.9168C3.84663 15.9168 3.24967 15.3199 3.24967 14.5835H1.74967C1.74967 16.1483 3.0182 17.4168 4.58301 17.4168V15.9168ZM3.24967 14.5835C3.24967 13.8471 3.84663 13.2502 4.58301 13.2502V11.7502C3.0182 11.7502 1.74967 13.0187 1.74967 14.5835H3.24967ZM4.58301 13.2502C5.31939 13.2502 5.91634 13.8471 5.91634 14.5835H7.41634C7.41634 13.0187 6.14781 11.7502 4.58301 11.7502V13.2502ZM16.7497 14.5835C16.7497 15.3199 16.1527 15.9168 15.4163 15.9168V17.4168C16.9811 17.4168 18.2497 16.1483 18.2497 14.5835H16.7497ZM15.4163 15.9168C14.68 15.9168 14.083 15.3199 14.083 14.5835H12.583C12.583 16.1483 13.8515 17.4168 15.4163 17.4168V15.9168ZM14.083 14.5835C14.083 13.8471 14.68 13.2502 15.4163 13.2502V11.7502C13.8515 11.7502 12.583 13.0187 12.583 14.5835H14.083ZM15.4163 13.2502C16.1527 13.2502 16.7497 13.8471 16.7497 14.5835H18.2497C18.2497 13.0187 16.9811 11.7502 15.4163 11.7502V13.2502ZM12.4998 14.2502C11.4217 14.2499 7.70149 14.2502 6.66634 14.2502V15.7502C7.7018 15.7502 11.4216 15.7499 12.4995 15.7502L12.4998 14.2502Z" fill="currentColor"/>
</g>
</svg>
