<svg xmlns="http://www.w3.org/2000/svg" fill="none" viewBox="0 0 22 22">
  <path fill="currentColor"
    d="M15.687 1.83a2.833 2.833 0 0 1 4.007 0l.476.477a2.835 2.835 0 0 1 0 4.007l-7.762 7.766a2.88 2.88 0 0 1-1.228.72l-3.937 1.126a.896.896 0 0 1-.929-.275c-.24-.209-.334-.563-.24-.894L7.2 10.821a2.88 2.88 0 0 1 .72-1.228l7.767-7.763Zm2.637 1.336c-.334-.369-.933-.369-1.303 0L15.876 4.31l1.814 1.814 1.146-1.18c.37-.335.37-.933 0-1.302l-.512-.477ZM9.018 11.34l-.66 2.302 2.302-.66a.921.921 0 0 0 .41-.24l5.286-5.283-1.815-1.815-5.282 5.287a.92.92 0 0 0-.24.409Zm-.145-7.975a.944.944 0 1 1 0 1.89H4.464c-.87 0-1.575.704-1.575 1.574v10.706c0 .87.706 1.575 1.575 1.575h10.707c.87 0 1.575-.705 1.575-1.575v-4.408c0-.524.42-.945.944-.945s.945.421.945.945v4.408A3.464 3.464 0 0 1 15.171 21H4.464A3.464 3.464 0 0 1 1 17.536V6.83a3.464 3.464 0 0 1 3.464-3.464h4.409Z" />
</svg>