<svg xmlns="http://www.w3.org/2000/svg" fill="none" viewBox="0 0 32 32">
  <path fill="currentColor"
    d="M2.819 18.012a4.06 4.06 0 0 1 0-4.024L7.69 5.44a3.962 3.962 0 0 1 3.442-2.012h9.738c1.418 0 2.731.766 3.443 2.012l4.866 8.547a4.06 4.06 0 0 1 0 4.024l-4.872 8.547a3.962 3.962 0 0 1-3.442 2.013h-9.738a3.969 3.969 0 0 1-3.443-2.013L2.82 18.012Zm2.295-2.683a1.353 1.353 0 0 0 0 1.342l4.872 8.547c.237.413.673.67 1.147.67h9.738c.475 0 .91-.257 1.148-.67l4.871-8.547a1.353 1.353 0 0 0 0-1.342L22.02 6.783a1.325 1.325 0 0 0-1.148-.671h-9.743c-.475 0-.91.257-1.148.67L5.11 15.33h.005Zm6.417-3.857a1.307 1.307 0 0 1 1.87 0l2.593 2.628 2.593-2.628a1.307 1.307 0 0 1 1.87 0 1.354 1.354 0 0 1 0 1.895l-2.593 2.627 2.593 2.628a1.349 1.349 0 0 1 0 1.895 1.312 1.312 0 0 1-1.87 0l-2.593-2.627-2.593 2.627a1.307 1.307 0 0 1-1.87 0 1.354 1.354 0 0 1 0-1.895l2.593-2.627-2.594-2.628a1.348 1.348 0 0 1 0-1.895Z" />
</svg>