<svg xmlns="http://www.w3.org/2000/svg" fill="none" viewBox="0 0 20 20">
  <path fill="currentColor"
    d="M5.149 5.218c1.269-1.01 2.896-1.78 4.85-1.78 2.314 0 4.167 1.079 5.517 2.36 1.34 1.272 2.237 2.77 2.66 3.842a.95.95 0 0 1 0 .72c-.383.947-1.153 2.28-2.288 3.469l3.014 2.414c.298.24.352.683.117.987a.678.678 0 0 1-.965.12L1.095 3.757a.714.714 0 0 1-.117-.988.677.677 0 0 1 .966-.12l3.205 2.569Zm1.12.9 1.318 1.055a3.616 3.616 0 0 1 2.412-.923c2.025 0 3.666 1.679 3.666 3.75 0 .621-.146 1.204-.406 1.72l1.54 1.236c.96-1 1.67-2.162 2.035-2.956a10.567 10.567 0 0 0-2.255-3.173c-1.177-1.116-2.713-2.01-4.58-2.01-1.447 0-2.719.546-3.73 1.301Zm5.875 4.708c.095-.258.146-.536.146-.852 0-1.269-1.025-2.344-2.291-2.344-.02 0-.038.026-.083.026.063.15.083.308.083.443 0 .325-.07.606-.19.855l2.335 1.872Zm.27 3.817 1.2.967a7.4 7.4 0 0 1-3.615.952c-2.315 0-4.168-1.078-5.518-2.361-1.34-1.298-2.236-2.795-2.662-3.84a.957.957 0 0 1 0-.721A11.2 11.2 0 0 1 3.212 7.23l1.08.87a9.444 9.444 0 0 0-1.127 1.873c.389.905 1.15 2.15 2.253 3.199 1.178 1.116 2.713 1.983 4.58 1.983.88 0 1.685-.193 2.415-.513Zm-6.082-4.67c0-.058.003-.14.009-.222l1.607 1.295c.3.618.862 1.08 1.535 1.213l1.61 1.321c-.347.085-.713.17-1.12.17-2 0-3.667-1.679-3.667-3.776h.026Z" />
</svg>