<svg xmlns="http://www.w3.org/2000/svg" fill="none" viewBox="0 0 24 24">
  <path fill="#D4D4D4" d="M7.43 12c0-2.434 2.046-4.408 4.571-4.408S16.573 9.566 16.573 12c0 2.435-2.047 4.409-4.572 4.409S7.429 14.435 7.429 12ZM12 14.755c1.579 0 2.857-1.232 2.857-2.755 0-1.522-1.278-2.755-2.857-2.755h-.104c.079.176.104.362.104.551 0 1.216-1.025 2.204-2.286 2.204-.196 0-.39-.024-.571-.1v.07c0 1.553 1.278 2.785 2.857 2.785ZM5.123 7.063C6.804 5.555 9.115 4.286 12 4.286s5.197 1.269 6.879 2.776c1.671 1.495 2.79 3.254 3.318 4.515a1.06 1.06 0 0 1 0 .847c-.529 1.23-1.647 2.99-3.318 4.515-1.682 1.508-3.993 2.776-6.879 2.776-2.886 0-5.197-1.268-6.878-2.776-1.672-1.526-2.789-3.286-3.32-4.515a1.065 1.065 0 0 1 0-.847c.531-1.26 1.648-3.02 3.32-4.515ZM12 5.939c-2.329 0-4.243 1.02-5.71 2.332C4.914 9.504 3.965 10.936 3.48 12c.485 1.033 1.434 2.496 2.809 3.73 1.468 1.311 3.382 2.33 5.711 2.33s4.243-1.019 5.711-2.33c1.375-1.234 2.293-2.697 2.81-3.73a12.449 12.449 0 0 0-2.81-3.73c-1.468-1.312-3.382-2.332-5.711-2.332Z"/>
</svg>
