<svg xmlns="http://www.w3.org/2000/svg" fill="none" viewBox="0 0 24 24">
  <path fill="currentColor"
    d="M14.384 3.428c.988 0 1.793.824 1.793 1.839 0 .464-.17.915-.518 1.254l-4.048 4.47v8.124c0 .804-.596 1.456-1.38 1.456-.318 0-.553-.085-.783-.242l-3.321-2.223a1.863 1.863 0 0 1-.745-1.49V10.99L1.335 6.521a1.87 1.87 0 0 1-.48-1.254c0-1.015.804-1.84 1.795-1.84h11.734ZM7.432 10.57v5.852l2.09 1.415v-7.267c0-.273.139-.532.317-.728l3.866-4.272H3.325l3.868 4.272c.178.196.24.455.24.728Zm14.665 7.5c.578 0 1.044.477 1.044 1.071s-.466 1.071-1.044 1.071h-6.268a1.056 1.056 0 0 1-1.045-1.071c0-.594.466-1.071 1.045-1.071h6.267Zm-7.313-6.072c0-.594.466-1.071 1.045-1.071h6.267c.58 0 1.045.477 1.045 1.071s-.466 1.072-1.044 1.072h-6.268a1.056 1.056 0 0 1-1.045-1.072Zm7.312-8.214c.58 0 1.045.48 1.045 1.071 0 .594-.466 1.072-1.044 1.072h-3.483a1.056 1.056 0 0 1-1.044-1.072c0-.591.465-1.071 1.044-1.071h3.482Z" />
</svg>