<svg xmlns="http://www.w3.org/2000/svg" fill="none" viewBox="0 0 20 20">
  <path fill="currentColor"
    d="M3.036 2.143c-1.28 0-2.321 1.006-2.321 2.244v11.225c0 1.238 1.04 2.245 2.321 2.245h13.929c1.28 0 2.321-1.007 2.321-2.245v-8.98c0-1.238-1.04-2.245-2.321-2.245H11.23L9.674 2.883a2.657 2.657 0 0 0-1.846-.74H3.036Zm-.58 2.244c0-.308.261-.56.58-.56h4.792c.232 0 .453.087.616.245l1.644 1.589c.272.263.642.41 1.026.41h5.85c.32 0 .581.253.581.561v8.98a.573.573 0 0 1-.58.561H3.036a.573.573 0 0 1-.58-.561V4.387ZM9.13 14.21c0 .466.388.842.87.842.483 0 .871-.376.871-.842v-2.245h2.322c.482 0 .87-.375.87-.842a.855.855 0 0 0-.87-.842H10.87V8.035a.854.854 0 0 0-.87-.841.855.855 0 0 0-.871.841v2.245H6.809a.855.855 0 0 0-.87.842c0 .467.387.842.87.842H9.13v2.245Z" />
</svg>