<svg xmlns="http://www.w3.org/2000/svg" fill="none" viewBox="0 0 28 28">
  <path fill="currentColor"
    d="M18.334 24h2.167c.515 0 .989-.268 1.246-.71l5.056-8.571c.262-.442.262-.987.005-1.433a1.433 1.433 0 0 0-1.25-.715H7.5c-.514 0-.988.268-1.245.71l-3.088 5.232V6.857a.72.72 0 0 1 .722-.714h5.304c.19 0 .375.076.51.21L10.9 7.536A5.086 5.086 0 0 0 14.475 9h5.304a.72.72 0 0 1 .722.714v.345a1.083 1.083 0 1 0 2.167 0v-.345c0-1.576-1.296-2.857-2.889-2.857h-5.304c-.768 0-1.503-.299-2.045-.835l-1.196-1.187A2.907 2.907 0 0 0 9.189 4h-5.3C2.296 4 1 5.281 1 6.857v14.286C1 22.719 2.296 24 3.89 24H18.333Z" />
</svg>