<svg xmlns="http://www.w3.org/2000/svg" fill="none" viewBox="0 0 20 20">
  <path fill="currentColor"
    d="M16.965 4.196h-6.243l-1.784-1.64a2.314 2.314 0 0 0-1.64-.681H3.036A2.321 2.321 0 0 0 .715 4.196v11.608a2.322 2.322 0 0 0 2.321 2.321h13.929a2.322 2.322 0 0 0 2.321-2.321V6.518a2.324 2.324 0 0 0-2.321-2.322Zm.58 11.608c0 .32-.26.58-.58.58H3.036c-.32 0-.58-.26-.58-.58V4.196c0-.32.26-.58.58-.58h4.262c.155 0 .301.06.41.17l2.293 2.151h6.964c.32 0 .58.26.58.58v9.287Z" />
  <path fill="currentColor"
    d="M13.503 10.528a.87.87 0 0 1 0 1.231L10.6 14.692a.87.87 0 1 1-1.23-1.23l1.416-1.416H7.083a.87.87 0 0 1 0-1.741h3.703L9.37 8.857a.87.87 0 1 1 1.231-1.23l2.902 2.9Z" />
</svg>