<svg xmlns="http://www.w3.org/2000/svg" fill="none" viewBox="0 0 28 28">
  <path fill="#5E6278" d="M14 1.477c6.917 0 12.523 5.606 12.523 12.523S20.917 26.523 14 26.523 1.477 20.917 1.477 14 7.083 1.477 14 1.477Zm0 22.698c.362 0 1.277-.352 2.329-2.367.43-.866.758-1.918 1.076-3.112h-6.81c.274 1.194.646 2.246 1.076 3.112 1.008 2.015 1.967 2.367 2.329 2.367Zm-3.791-7.827h7.582a22.644 22.644 0 0 0 0-4.696H10.21a22.644 22.644 0 0 0 0 4.696Zm7.196-7.044c-.318-1.194-.646-2.246-1.076-3.11-1.052-2.016-1.967-2.37-2.329-2.37-.362 0-1.32.354-2.329 2.37-.43.864-.802 1.916-1.076 3.11h6.81Zm2.75 2.348c.068.758.107 1.546.107 2.348 0 .802-.04 1.59-.108 2.348h3.747c.181-.753.274-1.54.274-2.348 0-.807-.093-1.595-.274-2.348h-3.747Zm-1.943-6.917c.69 1.255 1.238 2.812 1.595 4.569h3.224a10.218 10.218 0 0 0-4.819-4.569Zm-8.424 0a10.217 10.217 0 0 0-4.817 4.569h3.222c.357-1.757.905-3.314 1.595-4.569ZM3.825 14c0 .807.094 1.595.272 2.348h3.749A26.16 26.16 0 0 1 7.738 14c0-.802.04-1.59.108-2.348H4.097c-.178.753-.272 1.54-.272 2.348Zm19.206 4.696h-3.224c-.357 1.756-.905 3.312-1.595 4.57a10.227 10.227 0 0 0 4.819-4.57Zm-14.838 0H4.971a10.225 10.225 0 0 0 4.817 4.57c-.69-1.258-1.238-2.813-1.595-4.57Z"/>
</svg>
