<svg width="20" height="20" viewBox="0 0 20 20" fill="none" xmlns="http://www.w3.org/2000/svg">
<g id="Huge-icon/multimedia and audio/outline/headphones">
<path id="Vector" d="M17.5 10.8327V12.4993C17.5 13.8801 16.3807 14.9993 15 14.9993C13.6193 14.9993 12.5 13.8801 12.5 12.4993V10.8327C12.5 9.45197 13.6193 8.33268 15 8.33268C16.3807 8.33268 17.5 9.45197 17.5 10.8327ZM17.5 10.8327V9.16602C17.5 5.02388 14.1421 1.66602 10 1.66602C5.85786 1.66602 2.5 5.02388 2.5 9.16602V10.8327M2.5 10.8327V12.4993C2.5 13.8801 3.61929 14.9993 5 14.9993C6.38071 14.9993 7.5 13.8801 7.5 12.4993V10.8327C7.5 9.45197 6.38071 8.33268 5 8.33268C3.61929 8.33268 2.5 9.45197 2.5 10.8327ZM17.5 11.666V13.3327C17.5 16.0941 15.2614 18.3327 12.5 18.3327H10" stroke="#5E6278" stroke-width="1.5" stroke-linecap="round" stroke-linejoin="round"/>
</g>
</svg>
