<svg xmlns="http://www.w3.org/2000/svg" fill="none" viewBox="0 0 28 28">
  <path fill="currentColor"
    d="m13.39 5.198.564.63.61-.629c1.7-1.715 4.057-2.495 6.373-2.097C24.435 3.705 27 6.837 27 10.51v.305c0 2.18-.873 4.265-2.417 5.752l-9.176 8.861c-.381.368-.884.573-1.407.573a2.024 2.024 0 0 1-1.407-.573l-9.176-8.861C1.875 15.079 1 12.994 1 10.814v-.305c0-3.672 2.565-6.804 6.063-7.407 2.27-.398 4.672.382 6.328 2.096 0 0-.046 0 0 0Zm.564 4.197L11.67 6.937a4.822 4.822 0 0 0-4.205-1.348c-2.323.4-4.027 2.483-4.027 4.92v.305c0 1.481.595 2.9 1.643 3.908L14 23.337l8.922-8.615a5.433 5.433 0 0 0 1.64-3.908v-.305c0-2.437-1.706-4.52-4.027-4.92a4.822 4.822 0 0 0-4.204 1.348l-2.377 2.458Z" />
</svg>