<svg width="20" height="20" viewBox="0 0 20 20" fill="currentColor" xmlns="http://www.w3.org/2000/svg">
<g id="heart">
<g id="Vector">
<path d="M10.6379 2.91857L10.0003 3.60352L9.36278 2.91857C7.60227 1.02714 4.7479 1.02714 2.98738 2.91857C1.22686 4.81 1.22686 7.87662 2.98738 9.76805L8.72524 15.9326C9.42945 16.6891 10.5712 16.6891 11.2754 15.9326L17.0133 9.76804C18.7738 7.87661 18.7738 4.81 17.0133 2.91857C15.2527 1.02714 12.3984 1.02714 10.6379 2.91857Z" fill="#007FFF"/>
<path d="M10.6379 2.91857L10.0003 3.60352L9.36278 2.91857C7.60227 1.02714 4.7479 1.02714 2.98738 2.91857C1.22686 4.81 1.22686 7.87662 2.98738 9.76805L8.72524 15.9326C9.42945 16.6891 10.5712 16.6891 11.2754 15.9326L17.0133 9.76804C18.7738 7.87661 18.7738 4.81 17.0133 2.91857C15.2527 1.02714 12.3984 1.02714 10.6379 2.91857Z" stroke="#007FFF" stroke-width="0" stroke-linejoin="round"/>
</g>
</g>
</svg>
