<svg xmlns="http://www.w3.org/2000/svg" fill="none" viewBox="0 0 36 36">
  <path fill="currentColor"
    d="M18 2.571c8.523 0 15.43 6.907 15.43 15.429S26.522 33.428 18 33.428c-3.145 0-6.074-.94-8.515-2.561-.663-.44-.844-1.338-.458-2 .494-.67 1.392-.85 2.061-.41a12.44 12.44 0 0 0 6.913 2.079c6.925 0 12.536-5.611 12.536-12.536S24.926 5.464 18 5.464A12.53 12.53 0 0 0 7.435 11.25h3.334c.801 0 1.446.645 1.446 1.446 0 .802-.645 1.447-1.446 1.447h-6.75a1.445 1.445 0 0 1-1.447-1.447v-6.75a1.447 1.447 0 0 1 2.893 0v3.056c2.8-3.892 7.37-6.43 12.536-6.43Zm0 7.715c.802 0 1.447.644 1.447 1.446v5.671l3.863 3.912c.615.566.615 1.482 0 1.994-.512.615-1.428.615-1.994 0l-4.34-4.339c-.27-.217-.422-.584-.422-.97v-6.268c0-.802.645-1.446 1.447-1.446Z" />
</svg>