<svg xmlns="http://www.w3.org/2000/svg" fill="none" viewBox="0 0 18 18">
  <path fill="currentColor"
    d="M9 1.285A7.714 7.714 0 0 0 1.284 9 7.714 7.714 0 0 0 9 16.714a7.714 7.714 0 0 0 7.715-7.715 7.714 7.714 0 0 0-7.715-7.714Zm0 13.982A6.275 6.275 0 0 1 2.731 9a6.275 6.275 0 0 1 6.267-6.267 6.275 6.275 0 0 1 6.268 6.267A6.275 6.275 0 0 1 9 15.267Zm1.205-3.857h-.482V8.758a.723.723 0 0 0-.724-.723h-.964a.725.725 0 0 0-.723.723c0 .398.325.724.723.724h.241v1.928h-.482a.725.725 0 0 0-.723.723c0 .398.325.724.723.724h2.41a.723.723 0 0 0 0-1.447ZM8.999 7.07a.964.964 0 1 0 0-1.928.964.964 0 0 0 0 1.929Z" />
</svg>