<svg xmlns="http://www.w3.org/2000/svg" fill="none" viewBox="0 0 16 16">
  <g clip-path="url(#clip0_122_187)">
    <path fill="#fff" d="M8 .375A7.624 7.624 0 0 0 .375 8 7.624 7.624 0 0 0 8 15.625 7.624 7.624 0 0 0 15.625 8 7.624 7.624 0 0 0 8 .375Zm0 13.82A6.202 6.202 0 0 1 1.805 8 6.202 6.202 0 0 1 8 1.805 6.202 6.202 0 0 1 14.195 8 6.202 6.202 0 0 1 8 14.195ZM8 9.43c.395 0 .715-.32.715-.715V4.902a.715.715 0 0 0-1.43 0v3.813c0 .396.322.715.715.715Zm0 .986a.937.937 0 1 0 0 1.873.937.937 0 0 0 0-1.873Z"/>
  </g>
  <defs>
    <clipPath id="clip0_122_187">
      <path fill="#fff" d="M0 0h16v16H0z"/>
    </clipPath>
  </defs>
</svg>
