<svg xmlns="http://www.w3.org/2000/svg" fill="none" viewBox="0 0 100 100">
  <path fill="currentColor"
    d="M87.589 18.75 53.303 4.238c-.875-.367-2.357-.668-3.285-.668-.947 0-2.429.3-3.304.67L12.428 18.75c-3.198 1.339-5.285 4.516-5.285 7.871 0 46.81 33.785 69.806 42.696 69.806 9.286 0 43.018-23.25 43.018-69.806 0-3.355-2.09-6.532-5.268-7.873Zm-37.571-6.468s.017 0 0 0Zm-.179 75.441c-16.357-6.982-34.114-29.036-34.114-60.92 0-.008 0 .01 0 0L49.796 12.36c.06-.018.133-.055.228-.072l34.261 14.334c0 36.89-22.428 56.077-34.446 61.101Zm-9.84-46.428c0 4.044 2.345 7.508 5.715 9.142v12.62c0 2.413 1.929 4.354 4.286 4.354 2.357 0 4.285-1.95 4.285-4.353V50.435A10.143 10.143 0 0 0 60 41.293c0-5.61-4.477-10.157-10-10.157S40 35.69 40 41.295Z" />
</svg>