<svg width="32" height="32" viewBox="0 0 32 32" fill="none" xmlns="http://www.w3.org/2000/svg">
<g id="Huge-icon/finance and payment/outline/master card">
<rect id="Rectangle 577" x="29.333" y="4" width="24" height="26.6667" rx="4" transform="rotate(90 29.333 4)" stroke="#5E6278" stroke-width="2"/>
<path id="Vector" d="M15.9997 13.0185C15.1813 13.751 14.6663 14.8153 14.6663 16C14.6663 17.1847 15.1813 18.249 15.9997 18.9815M15.9997 13.0185C16.7073 12.3851 17.6419 12 18.6663 12C20.8755 12 22.6663 13.7909 22.6663 16C22.6663 18.2091 20.8755 20 18.6663 20C17.6419 20 16.7073 19.6149 15.9997 18.9815M15.9997 13.0185C15.292 12.3851 14.3575 12 13.333 12C11.1239 12 9.33301 13.7909 9.33301 16C9.33301 18.2091 11.1239 20 13.333 20C14.3575 20 15.292 19.6149 15.9997 18.9815" stroke="#5E6278" stroke-width="2"/>
</g>
</svg>
