<svg xmlns="http://www.w3.org/2000/svg" fill="none" viewBox="0 0 20 20">
  <path fill="currentColor"
    d="M.715 3.75a.88.88 0 0 1 .87-.893h4.36c.635 0 1.233.305 1.614.823l3.946 5.308a.29.29 0 0 0 .232.12h4.577L14.9 7.656a.905.905 0 0 1 0-1.262.855.855 0 0 1 1.23 0l2.9 2.977c.341.35.341.915 0 1.26l-2.9 2.977a.852.852 0 0 1-1.23 0 .909.909 0 0 1 0-1.261l1.414-1.451h-4.58a.29.29 0 0 0-.233.119L7.56 16.32a2.017 2.017 0 0 1-1.614.822h-4.36a.88.88 0 0 1-.87-.893.88.88 0 0 1 .87-.893h4.36a.29.29 0 0 0 .232-.119L10.065 10 6.173 4.762a.29.29 0 0 0-.232-.119H1.585a.88.88 0 0 1-.87-.893Z" />
</svg>