<svg xmlns="http://www.w3.org/2000/svg" fill="none" viewBox="0 0 42 42">
  <path fill="#000" d="M35 7H7a3.473 3.473 0 0 0-3.482 3.5l-.018 21C3.5 33.443 5.058 35 7 35h28c1.943 0 3.5-1.557 3.5-3.5v-21C38.5 8.557 36.943 7 35 7ZM14.875 24.867c0 .753-.63 1.383-1.383 1.383-.437 0-.857-.21-1.12-.578l-4.06-5.547v5.04a1.08 1.08 0 0 1-1.084 1.085c-.595 0-1.103-.49-1.103-1.085v-8.032c0-.753.63-1.383 1.383-1.383h.087c.455 0 .875.21 1.138.578l3.954 5.547v-5.04c0-.595.49-1.085 1.103-1.085s1.085.49 1.085 1.085v8.032Zm8.75-7.997a1.08 1.08 0 0 1-1.085 1.085h-3.29v1.96h3.29c.613 0 1.085.49 1.085 1.085v.017a1.08 1.08 0 0 1-1.085 1.085h-3.29v1.943h3.29c.613 0 1.085.49 1.085 1.085a1.08 1.08 0 0 1-1.085 1.085h-4.427a1.487 1.487 0 0 1-1.488-1.488v-7.524c0-.788.665-1.453 1.488-1.453h4.427c.613 0 1.085.49 1.085 1.085v.035Zm12.25 7.63c0 .962-.788 1.75-1.75 1.75h-7c-.962 0-1.75-.788-1.75-1.75v-7.665c0-.595.49-1.085 1.085-1.085s1.085.49 1.085 1.085v6.807h1.977v-5.075c0-.612.49-1.084 1.086-1.084.595 0 1.084.49 1.084 1.084v5.058h1.96v-6.79c0-.613.49-1.085 1.085-1.085.596 0 1.085.49 1.085 1.085V24.5h.053Z"/>
</svg>
