<svg width="80" height="80" viewBox="0 0 80 80" fill="none" xmlns="http://www.w3.org/2000/svg">
<path d="M19.9998 13.3334H59.9998C67.3636 13.3334 73.3332 19.303 73.3332 26.6667V43.3334C73.3332 50.6972 67.3636 56.6667 59.9998 56.6667H33.3332C25.9694 56.6667 19.9998 50.6972 19.9998 43.3334V13.3334ZM19.9998 13.3334C19.9998 9.65152 17.0151 6.66675 13.3332 6.66675H6.6665" stroke="#BDBDBD" stroke-width="4" stroke-linecap="round" stroke-linejoin="round"/>
<path d="M36.6665 68.3333C36.6665 71.0947 34.4279 73.3333 31.6665 73.3333C28.9051 73.3333 26.6665 71.0947 26.6665 68.3333C26.6665 65.5718 28.9051 63.3333 31.6665 63.3333C34.4279 63.3333 36.6665 65.5718 36.6665 68.3333Z" stroke="#BDBDBD" stroke-width="4"/>
<path d="M66.6665 68.3333C66.6665 71.0947 64.4279 73.3333 61.6665 73.3333C58.9051 73.3333 56.6665 71.0947 56.6665 68.3333C56.6665 65.5718 58.9051 63.3333 61.6665 63.3333C64.4279 63.3333 66.6665 65.5718 66.6665 68.3333Z" stroke="#BDBDBD" stroke-width="4"/>
<path d="M56.6665 43.3333C49.9998 36.6666 43.3332 36.6666 36.6665 43.3333" stroke="#BDBDBD" stroke-width="4" stroke-linecap="round" stroke-linejoin="round"/>
<path d="M36.6925 26.6667H36.6665" stroke="#BDBDBD" stroke-width="6" stroke-linecap="round"/>
<path d="M56.7189 26.6667H56.6929" stroke="#BDBDBD" stroke-width="6" stroke-linecap="round"/>
</svg>
