<svg xmlns="http://www.w3.org/2000/svg" fill="none" viewBox="0 0 36 36">
  <path fill="currentColor"
    d="M20.021 3.295v1.123c4.578.722 8.082 4.665 8.082 9.424v2.097c0 2.85.98 5.619 2.766 7.847l.94 1.168c.367.452.437 1.073.184 1.594a1.517 1.517 0 0 1-1.364.854H5.373a1.517 1.517 0 0 1-1.366-.854 1.5 1.5 0 0 1 .183-1.594l.941-1.168a12.528 12.528 0 0 0 2.767-7.847v-2.097c0-4.759 3.505-8.702 8.082-9.424V3.295c0-1.11.903-2.009 2.021-2.009 1.118 0 2.02.9 2.02 2.01Zm-2.525 4.018c-3.624 0-6.567 2.925-6.567 6.529v2.097a15.52 15.52 0 0 1-2.506 8.45H27.58a15.526 15.526 0 0 1-2.507-8.45v-2.097c0-3.604-2.943-6.53-6.567-6.53h-1.01Zm4.546 22.098c0 1.01-.423 2.09-1.18 2.844A4.155 4.155 0 0 1 18 33.429a4.054 4.054 0 0 1-2.86-1.174 4.107 4.107 0 0 1-1.181-2.844h8.082Z" />
</svg>