<svg xmlns="http://www.w3.org/2000/svg" fill="none" viewBox="0 0 36 36">
  <path fill="currentColor"
    d="M21.456 8.572H7.178a.727.727 0 0 0-.737.715v.756h5.892c.405 0 .737.322.737.715a.728.728 0 0 1-.737.715H2.022a.727.727 0 0 1-.737-.715c0-.393.33-.714.737-.714h2.21v-.757c0-1.579 1.318-2.858 2.946-2.858h14.278c1.625 0 2.946 1.28 2.946 2.858v.756h1.966c.686 0 1.34.264 1.823.733l4.295 4.167a2.46 2.46 0 0 1 .755 1.768v6.43h.368c.612 0 1.105.477 1.105 1.071s-.493 1.072-1.105 1.072h-1.842c0 2.367-1.979 4.288-4.419 4.288-2.481 0-4.419-1.92-4.419-4.288h-9.86c0 2.367-1.979 4.288-4.418 4.288-2.482 0-4.42-1.92-4.42-4.288v-4.716a1 1 0 0 1 1-1h.21a1 1 0 0 1 1 1v1a4.53 4.53 0 0 1 2.21-.571c1.634 0 3.066.862 3.83 2.143h8.975a.728.728 0 0 0 .736-.714V9.287a.727.727 0 0 0-.736-.715Zm5.174 3.718a.371.371 0 0 0-.262-.103h-1.966v4.288h6.537l-.01-.01-.004-.008-4.295-4.167ZM8.65 23.14c-1.22 0-2.209.96-2.209 2.144 0 1.184.99 2.144 2.21 2.144s2.21-.96 2.21-2.144c0-1.183-.99-2.143-2.21-2.143Zm18.698 4.288c1.22 0 2.21-.96 2.21-2.144 0-1.183-.99-2.143-2.21-2.143s-2.21.96-2.21 2.143c0 1.184.99 2.144 2.21 2.144ZM13.806 12.902c.405 0 .737.321.737.714a.728.728 0 0 1-.737.715H3.495a.727.727 0 0 1-.737-.715c0-.393.33-.714.737-.714h10.311Zm-1.473 2.858c.405 0 .737.322.737.715a.728.728 0 0 1-.737.714H2.022a.727.727 0 0 1-.737-.714c0-.393.33-.715.737-.715h10.311Z" />
</svg>