<svg width="20" height="20" viewBox="0 0 20 20" fill="none" xmlns="http://www.w3.org/2000/svg">
<g id="huge-icon/shipping and delivery/outline/package box 07">
<path id="Vector 1901" d="M16.6663 5.8335L9.99967 9.16683L3.33301 5.8335" stroke="currentColor" stroke-width="1.5" stroke-linecap="round" stroke-linejoin="round"/>
<path id="Vector" d="M15.5205 3.88952L11.3538 1.96506C10.4919 1.56698 9.50809 1.56698 8.6462 1.96506L4.47954 3.88952C3.27578 4.4455 2.5 5.68604 2.5 7.05498V12.9447C2.5 14.3136 3.27578 15.5542 4.47954 16.1102L8.64621 18.0346C9.50809 18.4327 10.4919 18.4327 11.3538 18.0346L15.5205 16.1102C16.7242 15.5542 17.5 14.3136 17.5 12.9447V7.05498C17.5 5.68604 16.7242 4.4455 15.5205 3.88952Z" stroke="currentColor" stroke-width="1.5" stroke-linecap="round" stroke-linejoin="round"/>
<path id="Vector_2" d="M6.66699 3.3335L14.167 7.50016V16.2502" stroke="currentColor" stroke-width="1.5" stroke-linecap="round" stroke-linejoin="round"/>
<path id="Vector 1903" d="M10 9.1665V18.3332" stroke="currentColor" stroke-width="1.5" stroke-linecap="round" stroke-linejoin="round"/>
</g>
</svg>
