<svg xmlns="http://www.w3.org/2000/svg" fill="none" viewBox="0 0 22 22">
  <path fill="#F4F4F4" stroke="#5E6278" stroke-width=".5" d="M16.094 1.625c.204 0 .4.083.541.23l3.3 3.44a.75.75 0 0 1 .208.52v13.76a.75.75 0 0 1-.75.75H7.055a.75.75 0 0 1-.75-.75v-17.2a.75.75 0 0 1 .75-.75h9.039Z"/>
  <path fill="#DD2025" d="M15.45 6.02a1 1 0 0 1-1 1H2.645a1 1 0 0 1-1-1V3.323a1 1 0 0 1 1-1H14.45a1 1 0 0 1 1 1V6.02Z"/>
  <path fill="#DD2025" d="M14.973 13.925s2.192-.397 2.192.352c0 .748-1.358.444-2.191-.352Zm-1.62.057c-.348.077-.688.19-1.013.337l.275-.62c.275-.618.56-1.461.56-1.461.329.552.71 1.07 1.14 1.548a8.98 8.98 0 0 0-.962.198v-.002Zm-.868-4.468c0-.653.212-.83.376-.83s.35.078.355.645a7.415 7.415 0 0 1-.355 1.673 3.043 3.043 0 0 1-.376-1.486v-.002Zm-3.196 7.23c-.672-.403 1.41-1.641 1.788-1.68-.002 0-1.084 2.1-1.788 1.68Zm8.516-2.379c-.007-.069-.068-.83-1.423-.797a9.787 9.787 0 0 0-1.686.119 8.62 8.62 0 0 1-1.383-1.826 8.084 8.084 0 0 0 .428-2.13c-.02-.826-.217-1.299-.85-1.292-.632.007-.725.56-.641 1.384.081.553.235 1.094.457 1.607 0 0-.292.91-.679 1.815-.386.904-.65 1.379-.65 1.379a6.615 6.615 0 0 0-1.874.962c-.566.528-.796.932-.498 1.338.257.349 1.157.428 1.961-.626.428-.544.818-1.117 1.17-1.713 0 0 1.226-.337 1.607-.429.382-.092.843-.165.843-.165s1.12 1.127 2.2 1.087c1.08-.04 1.028-.645 1.021-.711"/>
  <path fill="#fff" d="M6.17 3.064h-.899v3.3h.71V5.252l.157.009c.151-.003.302-.03.445-.08a.982.982 0 0 0 .567-.513c.069-.2.093-.413.072-.624-.004-.15-.03-.3-.078-.443a.806.806 0 0 0-.473-.447 1.477 1.477 0 0 0-.502-.09m-.13 1.577h-.06V3.624h.133a.392.392 0 0 1 .315.124c.083.11.127.246.126.384 0 .169 0 .322-.153.43a.648.648 0 0 1-.36.079m2.523-1.586c-.076 0-.15.006-.203.008l-.161.004h-.536v3.3h.63A1.84 1.84 0 0 0 9 6.247c.182-.072.343-.188.468-.338.122-.15.21-.327.256-.515.054-.213.08-.432.079-.652.013-.26-.007-.52-.06-.775a1.222 1.222 0 0 0-.643-.78 1.659 1.659 0 0 0-.377-.121.881.881 0 0 0-.157-.012M8.441 5.76h-.069V3.654h.01a.73.73 0 0 1 .412.074.894.894 0 0 1 .32.637c.006.15 0 .274 0 .377.003.118-.005.236-.023.352-.021.12-.06.236-.116.344a.777.777 0 0 1-.25.248.463.463 0 0 1-.286.072m3.49-2.691h-1.67v3.3h.707v-1.31h.894v-.612h-.894V3.68h.963v-.613"/>
</svg>
