<svg xmlns="http://www.w3.org/2000/svg" fill="none" viewBox="0 0 36 36">
  <path fill="currentColor"
    d="M32.153 12.47c3.414 3.345 3.414 8.725 0 12.07l-7.312 7.154c-.608.594-1.6.6-2.213.013a1.481 1.481 0 0 1-.014-2.147l7.306-7.147a5.43 5.43 0 0 0 0-7.816l-8.337-8.16a1.472 1.472 0 0 1 .013-2.142c.614-.588 1.606-.583 2.154.013l8.403 8.161Zm-21.466-1.598c0 1.174-.934 2.02-2.09 2.02-1.153 0-2.089-.846-2.089-2.02 0-1.06.936-2.02 2.09-2.02 1.155 0 2.088.96 2.088 2.02Zm17.412 4.773a3.953 3.953 0 0 1 0 5.72l-8.71 8.422c-1.632 1.579-4.283 1.579-5.915 0L2.51 19.181a3.963 3.963 0 0 1-1.224-2.854V6.888c0-1.674 1.403-3.03 3.134-3.03h9.76c1.11 0 2.168.425 2.951 1.183L28.1 15.645ZM4.419 6.831v9.496c0 .265.11.524.306.713l10.969 10.607c.405.398 1.07.398 1.475 0l8.716-8.429a.98.98 0 0 0 0-1.426L14.917 7.184c-.196-.19-.463-.353-.738-.353H4.42Z" />
</svg>