<svg xmlns="http://www.w3.org/2000/svg" fill="none" viewBox="0 0 22 22">
  <path fill="currentColor"
    d="M5.664 3.34h9.359l1.281 1.25v2.874h1.768V4.59c0-.469-.186-.918-.518-1.25l-1.25-1.25a1.766 1.766 0 0 0-1.248-.518H5.664c-.943 0-1.734.791-1.735 1.767V7.464h1.769L5.664 3.34Zm12.114 5.303H4.224a2.655 2.655 0 0 0-2.652 2.651v4.125c0 .489.396.884.884.884H4.52v2.947c0 .65.527 1.178 1.178 1.178h10.607c.651 0 1.179-.527 1.179-1.178v-2.947h2.063a.884.884 0 0 0 .883-.884v-4.125a2.655 2.655 0 0 0-2.651-2.651ZM15.715 18.66H6.287v-3.536h9.428v3.536Zm2.947-4.125h-1.179c0-.651-.528-1.179-1.179-1.179H5.697c-.65 0-1.178.528-1.178 1.179H3.34v-3.242c0-.487.397-.883.884-.883h13.554c.487 0 .884.396.884.883v3.242Z" />
</svg>