<svg xmlns="http://www.w3.org/2000/svg" fill="none" viewBox="0 0 20 20">
  <path fill="currentColor"
    d="M10.001 1.428A8.57 8.57 0 0 0 1.43 10 8.57 8.57 0 0 0 10 18.57 8.57 8.57 0 0 0 18.573 10 8.57 8.57 0 0 0 10 1.428Zm0 15.536A6.972 6.972 0 0 1 3.037 10 6.972 6.972 0 0 1 10 3.036 6.972 6.972 0 0 1 16.965 10a6.972 6.972 0 0 1-6.964 6.964Zm0-4.285c-.603 0-1.071.468-1.071 1.07 0 .604.438 1.072 1.071 1.072.573 0 1.072-.468 1.072-1.071s-.5-1.072-1.072-1.072Zm1.108-6.965H9.4a2.33 2.33 0 0 0-2.344 2.344c0 .435.368.803.803.803a.815.815 0 0 0 .804-.803c0-.402.305-.737.706-.737h1.711c.432 0 .797.335.797.737 0 .268-.134.472-.368.606L9.599 9.832a.826.826 0 0 0-.401.704v.535c0 .436.368.804.803.804a.815.815 0 0 0 .804-.804v-.067l1.51-.937a2.389 2.389 0 0 0 1.138-2.01c.03-1.305-1.008-2.343-2.344-2.343Z" />
</svg>