<svg xmlns="http://www.w3.org/2000/svg" fill="none" viewBox="0 0 22 22">
  <path fill="currentColor"
    d="M11 1.571A9.428 9.428 0 0 0 1.573 11a9.428 9.428 0 0 0 9.429 9.428A9.428 9.428 0 0 0 20.429 11a9.428 9.428 0 0 0-9.428-9.429Zm0 17.09c-4.224 0-7.66-3.437-7.66-7.661S6.776 3.34 11 3.34c4.225 0 7.662 3.436 7.662 7.66S15.225 18.66 11 18.66Zm0-4.715c-.662 0-1.178.516-1.178 1.179s.483 1.178 1.179 1.178c.63 0 1.178-.515 1.178-1.178 0-.663-.548-1.179-1.178-1.179Zm1.22-7.66h-1.882A2.562 2.562 0 0 0 7.76 8.864c0 .478.405.884.884.884a.896.896 0 0 0 .884-.884c0-.442.335-.81.777-.81h1.882c.475 0 .876.368.876.81 0 .294-.147.519-.405.666l-2.1 1.286a.908.908 0 0 0-.441.773v.59c0 .478.405.883.884.883a.896.896 0 0 0 .884-.884v-.073l1.66-1.032a2.628 2.628 0 0 0 1.253-2.21c.033-1.436-1.108-2.577-2.578-2.577Z" />
</svg>