<svg xmlns="http://www.w3.org/2000/svg" fill="none" viewBox="0 0 46 46">
  <path fill="currentColor"
    d="M7.424 8.111c0-.853.692-1.54 1.552-1.54h2.943c1.422 0 2.683.822 3.272 2.054h26.578c1.7 0 2.943 1.604 2.496 3.234l-2.651 9.774a4.658 4.658 0 0 1-4.494 3.42H18.463l.35 1.83a1.555 1.555 0 0 0 1.525 1.25h18.644c.86 0 1.552.688 1.552 1.541 0 .854-.692 1.54-1.552 1.54H20.338c-2.237 0-4.158-1.578-4.572-3.754L12.43 10.069a.513.513 0 0 0-.51-.417H8.976c-.86 0-1.552-.687-1.552-1.54Zm10.45 13.862H37.12c.704 0 1.319-.468 1.5-1.142l2.477-9.126H15.902l1.973 10.268Zm-2.172 14.375c0-.817.327-1.6.909-2.178a3.117 3.117 0 0 1 4.39 0c.582.578.909 1.361.909 2.178s-.327 1.6-.91 2.178a3.116 3.116 0 0 1-2.194.902 3.116 3.116 0 0 1-2.195-.902 3.069 3.069 0 0 1-.91-2.178Zm21.728-3.08c.823 0 1.613.324 2.195.902.582.578.909 1.361.909 2.178s-.327 1.6-.91 2.178a3.116 3.116 0 0 1-2.194.902 3.116 3.116 0 0 1-2.195-.902 3.068 3.068 0 0 1-.91-2.178c0-.817.328-1.6.91-2.178a3.116 3.116 0 0 1 2.195-.902ZM4.837 12.732h5.174c.86 0 1.552.687 1.552 1.54 0 .854-.692 1.54-1.552 1.54H4.837c-.86 0-1.552-.686-1.552-1.54 0-.853.692-1.54 1.552-1.54Zm-1.642 5.134h7.85c.86 0 1.553.687 1.553 1.54 0 .854-.692 1.54-1.552 1.54H3.195c-.86 0-1.552-.686-1.552-1.54 0-.853.692-1.54 1.552-1.54ZM4.837 23h7.243c.86 0 1.552.686 1.552 1.54s-.692 1.54-1.552 1.54H4.837c-.86 0-1.552-.686-1.552-1.54S3.977 23 4.837 23Z" />
</svg>