<svg xmlns="http://www.w3.org/2000/svg" fill="none" viewBox="0 0 30 30">
  <path fill="#222" d="M19.497 7.769a2.5 2.5 0 0 1 2.256 0l4.375 2.212A2.5 2.5 0 0 1 27.5 12.21v5.581a2.5 2.5 0 0 1-1.372 2.231l-4.375 2.213a2.5 2.5 0 0 1-2.256 0l-4.374-2.213a2.5 2.5 0 0 1-1.373-2.23v-5.58a2.5 2.5 0 0 1 1.373-2.23l4.374-2.212v-.001Zm-2.52 5.237a.939.939 0 0 0 .41 1.261l2.3 1.17v2.38a.938.938 0 0 0 1.875 0v-2.38l2.3-1.17a.937.937 0 0 0-.85-1.67l-2.387 1.214-2.387-1.215a.937.937 0 0 0-1.26.41ZM5.938 8.744a.937.937 0 1 0 0 1.875h5.625a.938.938 0 0 0 0-1.875H5.939Zm-2.5 5a.938.938 0 0 0 0 1.875h5.626a.938.938 0 0 0 0-1.875H3.436ZM5 19.68a.937.937 0 0 1 .938-.937h5.625a.938.938 0 0 1 0 1.875H5.936A.938.938 0 0 1 5 19.68Z"/>
</svg>
