<svg width="80" height="81" viewBox="0 0 80 81" fill="none" xmlns="http://www.w3.org/2000/svg">
<path d="M19.9993 13.8334H59.9994C67.3631 13.8334 73.3327 19.803 73.3327 27.1667V43.8334C73.3327 51.1972 67.3631 57.1667 59.9994 57.1667H33.3327C25.9689 57.1667 19.9993 51.1972 19.9993 43.8334V13.8334ZM19.9993 13.8334C19.9993 10.1515 17.0146 7.16675 13.3327 7.16675H6.66602" stroke="#BDBDBD" stroke-width="4" stroke-linecap="round" stroke-linejoin="round"/>
<path d="M36.666 68.8333C36.666 71.5947 34.4274 73.8333 31.666 73.8333C28.9046 73.8333 26.666 71.5947 26.666 68.8333C26.666 66.0718 28.9046 63.8333 31.666 63.8333C34.4274 63.8333 36.666 66.0718 36.666 68.8333Z" stroke="#BDBDBD" stroke-width="4"/>
<path d="M66.666 68.8333C66.666 71.5947 64.4274 73.8333 61.666 73.8333C58.9046 73.8333 56.666 71.5947 56.666 68.8333C56.666 66.0718 58.9046 63.8333 61.666 63.8333C64.4274 63.8333 66.666 66.0718 66.666 68.8333Z" stroke="#BDBDBD" stroke-width="4"/>
<path d="M46.666 27.1667L46.666 43.8334" stroke="#BDBDBD" stroke-width="4" stroke-linecap="round" stroke-linejoin="round"/>
<path d="M55.0007 35.5L38.334 35.5" stroke="#BDBDBD" stroke-width="4" stroke-linecap="round" stroke-linejoin="round"/>
</svg>
