<svg xmlns="http://www.w3.org/2000/svg" fill="none" viewBox="0 0 20 20">
  <path fill="#fff" d="M18.573 8.036a.848.848 0 0 1-.858.842h-5.143a.848.848 0 0 1-.857-.842c0-.467.383-.842.857-.842h3.076l-1.861-1.827A5.414 5.414 0 0 0 10 3.827c-2.596 0-4.828 1.547-5.786 3.756a.864.864 0 0 1-1.125.446.837.837 0 0 1-.453-1.105c1.218-2.81 4.057-4.78 7.364-4.78 1.875 0 3.671.729 4.997 2.03l1.86 1.831v-3.02c0-.467.382-.842.857-.842s.858.375.858.842v5.05ZM2.287 11.123h4c.475 0 .857.375.857.841a.848.848 0 0 1-.857.842H4.355l1.86 1.828a5.414 5.414 0 0 0 3.786 1.54c2.593 0 4.822-1.54 5.782-3.746a.862.862 0 0 1 1.125-.443.835.835 0 0 1 .45 1.106c-1.221 2.802-4.053 4.766-7.357 4.766a7.129 7.129 0 0 1-4.996-2.03l-1.861-1.832v1.898a.848.848 0 0 1-.857.842.848.848 0 0 1-.857-.842v-3.929c0-.466.382-.841.857-.841Z"/>
</svg>
