<svg xmlns="http://www.w3.org/2000/svg" fill="none" viewBox="0 0 24 24">
  <path fill="currentColor"
    d="m21.974 20.638-5.385-5.384c1.165-1.426 1.809-3.222 1.809-5.183a8.358 8.358 0 0 0-8.36-8.357c-4.616 0-8.323 3.742-8.323 8.357 0 4.615 3.742 8.357 8.323 8.357 1.96 0 3.76-.68 5.184-1.81l5.386 5.384c.225.19.474.283.72.283a.965.965 0 0 0 .681-.282.939.939 0 0 0-.035-1.365ZM3.644 10.071a6.437 6.437 0 0 1 6.43-6.429 6.437 6.437 0 0 1 6.43 6.429 6.437 6.437 0 0 1-6.43 6.429 6.437 6.437 0 0 1-6.43-6.429Z" />
</svg>