<svg xmlns="http://www.w3.org/2000/svg" fill="none" viewBox="0 0 24 24">
  <g clip-path="url(#clip0_105_35794)">
    <path fill="currentColor" fill-rule="evenodd"
      d="M18.5 2a3.5 3.5 0 1 1-2.506 5.943L11.67 10.21c.213.555.33 1.16.33 1.79 0 .612-.111 1.219-.33 1.79l4.324 2.267a3.5 3.5 0 1 1-.93 1.771l-4.476-2.346a5 5 0 1 1 0-6.963l4.476-2.347A3.501 3.501 0 0 1 18.5 2Zm0 15a1.5 1.5 0 1 0 0 3 1.5 1.5 0 0 0 0-3ZM7 9a3 3 0 1 0 0 6 3 3 0 0 0 0-6Zm11.5-5a1.5 1.5 0 1 0 0 2.999A1.5 1.5 0 0 0 18.5 4Z"
      clip-rule="evenodd" />
  </g>
  <defs>
    <clipPath id="clip0_105_35794">
      <path fill="#fff" d="M0 0h24v24H0z" />
    </clipPath>
  </defs>
</svg>