<svg width="25" height="24" viewBox="0 0 25 24" fill="none" xmlns="http://www.w3.org/2000/svg">
<g id="Huge-icon/interface/outline/share">
<path id="Vector" d="M8.96419 10.4344C8.38957 9.2874 7.20324 8.5 5.83301 8.5C3.90001 8.5 2.33301 10.067 2.33301 12C2.33301 13.933 3.90001 15.5 5.83301 15.5C7.20324 15.5 8.38957 14.7126 8.96419 13.5656M8.96419 10.4344C9.20019 10.9055 9.33301 11.4372 9.33301 12C9.33301 12.5628 9.20019 13.0945 8.96419 13.5656M8.96419 10.4344L15.7018 7.06559M8.96419 13.5656L15.7018 16.9344M15.7018 7.06559C16.2764 8.2126 17.4628 9 18.833 9C20.766 9 22.333 7.433 22.333 5.5C22.333 3.567 20.766 2 18.833 2C16.9 2 15.333 3.567 15.333 5.5C15.333 6.06276 15.4658 6.59451 15.7018 7.06559ZM15.7018 16.9344C15.4658 17.4055 15.333 17.9372 15.333 18.5C15.333 20.433 16.9 22 18.833 22C20.766 22 22.333 20.433 22.333 18.5C22.333 16.567 20.766 15 18.833 15C17.4628 15 16.2764 15.7874 15.7018 16.9344Z" stroke="currentColor" stroke-width="1.5" stroke-linecap="round"/>
</g>
</svg>
