<svg xmlns="http://www.w3.org/2000/svg" fill="none" viewBox="0 0 24 24">
  <g clip-path="url(#clip0_286_1430)">
    <path fill="currentColor"
      d="M23 5.714a4.716 4.716 0 0 1-4.714 4.715 4.703 4.703 0 0 1-3.556-1.621l-4.405 2.205c.07.32.06.648.06.943 0 .383.01.712-.06 1.031l4.405 2.16c.865-.947 2.136-1.62 3.556-1.62 2.602 0 4.714 2.112 4.714 4.759A4.715 4.715 0 0 1 18.286 23a4.687 4.687 0 0 1-4.715-4.714c0-.34.035-.668.104-.987L9.27 15.094a4.704 4.704 0 0 1-3.556 1.62C3.111 16.714 1 14.603 1 11.956a4.715 4.715 0 0 1 4.714-4.714c1.42 0 2.691.672 3.556 1.62l4.405-2.16a4.672 4.672 0 0 1-.104-.988A4.687 4.687 0 0 1 18.286 1 4.715 4.715 0 0 1 23 5.714ZM5.67 14.357A2.33 2.33 0 0 0 8.027 12 2.33 2.33 0 0 0 5.67 9.643c-1.258 0-2.357 1.056-2.357 2.357 0 1.301 1.1 2.357 2.357 2.357Zm12.616-11a2.358 2.358 0 1 0 .001 4.716 2.358 2.358 0 0 0-.001-4.716Zm0 17.286a2.358 2.358 0 1 0-.001-4.716 2.358 2.358 0 0 0 0 4.716Z" />
  </g>
  <defs>
    <clipPath id="clip0_286_1430">
      <path fill="#fff" d="M0 0h24v24H0z" />
    </clipPath>
  </defs>
</svg>