<svg xmlns="http://www.w3.org/2000/svg" fill="none" viewBox="0 0 24 24">
  <path fill="#007FFF" d="M21.634 12.908a1.314 1.314 0 0 0 0-1.82l-5-5.143a1.228 1.228 0 0 0-1.77 0 1.314 1.314 0 0 0 0 1.82l2.867 2.95h-8.23c-.692 0-1.25.574-1.25 1.285s.558 1.286 1.25 1.286h8.23l-2.867 2.949a1.314 1.314 0 0 0 0 1.82 1.228 1.228 0 0 0 1.77 0l5-5.143v-.004ZM8.25 5.571c.692 0 1.25-.574 1.25-1.285S8.942 3 8.25 3h-2.5C3.68 3 2 4.728 2 6.857v10.286C2 19.273 3.68 21 5.75 21h2.5c.692 0 1.25-.575 1.25-1.286 0-.71-.558-1.285-1.25-1.285h-2.5c-.691 0-1.25-.575-1.25-1.286V6.857c0-.711.559-1.286 1.25-1.286h2.5Z"/>
</svg>
