<svg xmlns="http://www.w3.org/2000/svg" fill="none" viewBox="0 0 24 24">
  <path fill="currentColor"
    d="M9.714 17.625c0 .344-.257.625-.571.625-.314 0-.572-.281-.572-.625V9.5c0-.344.258-.625.572-.625.314 0 .571.281.571.625v8.125Zm2.857 0c0 .344-.257.625-.571.625-.314 0-.571-.281-.571-.625V9.5c0-.344.257-.625.571-.625.314 0 .571.281.571.625v8.125Zm2.858 0c0 .344-.258.625-.572.625-.314 0-.571-.281-.571-.625V9.5c0-.344.257-.625.571-.625.314 0 .572.281.572.625v8.125Zm-.09-14.65 1.311 2.15h2.493c.475 0 .857.42.857.938 0 .519-.382.937-.857.937h-.286v11.875C18.857 20.602 17.58 22 16 22H8c-1.578 0-2.857-1.398-2.857-3.125V7h-.286C4.384 7 4 6.582 4 6.062c0-.517.384-.937.857-.937h2.494l1.31-2.15c.371-.61.996-.975 1.664-.975h3.35c.668 0 1.293.366 1.664.974Zm-5.928 2.15h5.178l-.678-1.11a.281.281 0 0 0-.236-.14h-3.35c-.093 0-.214.052-.236.14l-.678 1.11Zm-2.554 13.75c0 .691.512 1.25 1.143 1.25h8c.632 0 1.143-.559 1.143-1.25V7H6.857v11.875Z" />
</svg>