<svg xmlns="http://www.w3.org/2000/svg" fill="none" viewBox="0 0 28 28">
  <path fill="currentColor"
    d="m25.732 21.188-9.99-16.25C15.356 4.313 14.681 4 14.007 4c-.674 0-1.349.313-1.775.938l-9.986 16.25C1.521 22.433 2.479 24 4.019 24h19.982c1.534 0 2.495-1.563 1.731-2.813Zm-21.252.67 9.486-15.5 9.57 15.5H4.48Zm9.528-4.238c-.813 0-1.472.63-1.472 1.404 0 .775.66 1.404 1.474 1.404s1.471-.629 1.471-1.404c-.002-.774-.658-1.404-1.473-1.404Zm-1.124-6.834v4.285c0 .594.506 1.072 1.124 1.072.619 0 1.125-.48 1.125-1.072v-4.285c0-.59-.502-1.072-1.125-1.072s-1.124.482-1.124 1.072Z" />
</svg>