<svg xmlns="http://www.w3.org/2000/svg" fill="none" viewBox="0 0 24 24">
  <path fill="currentColor"
    d="M14.303 5.715h-9.52a.485.485 0 0 0-.49.477v.504H8.22c.27 0 .49.214.49.476a.485.485 0 0 1-.49.477H1.346a.485.485 0 0 1-.49-.477c0-.262.22-.476.49-.476H2.82v-.504c0-1.053.879-1.906 1.964-1.906h9.519c1.083 0 1.964.853 1.964 1.906v.504h1.31c.457 0 .893.176 1.215.488l2.864 2.778c.322.313.503.736.503 1.18v4.285h.246c.408 0 .736.319.736.715a.724.724 0 0 1-.736.715h-1.228c0 1.578-1.32 2.858-2.946 2.858-1.654 0-2.946-1.28-2.946-2.858H8.712c0 1.578-1.32 2.858-2.946 2.858-1.654 0-2.946-1.28-2.946-2.858v-3.075a.736.736 0 1 1 1.473 0v.597A3.02 3.02 0 0 1 5.766 14c1.09 0 2.044.574 2.553 1.428h5.984c.27 0 .49-.214.49-.476v-8.76a.485.485 0 0 0-.49-.476Zm3.45 2.479a.247.247 0 0 0-.176-.069h-1.31v2.858h4.358l-.006-.006-.004-.005-2.863-2.778ZM5.765 15.427c-.814 0-1.473.64-1.473 1.43 0 .788.66 1.429 1.473 1.429.813 0 1.473-.64 1.473-1.43 0-.789-.66-1.429-1.473-1.429Zm12.465 2.859c.813 0 1.473-.64 1.473-1.43 0-.789-.66-1.429-1.473-1.429-.813 0-1.473.64-1.473 1.43 0 .788.66 1.429 1.473 1.429ZM9.203 8.602c.27 0 .491.214.491.476a.485.485 0 0 1-.491.476H2.329a.485.485 0 0 1-.491-.476c0-.262.22-.476.49-.476h6.875Zm-.982 1.905c.27 0 .49.214.49.476a.485.485 0 0 1-.49.477H1.346a.485.485 0 0 1-.49-.477c0-.262.22-.476.49-.476h6.875Z" />
</svg>