<svg xmlns="http://www.w3.org/2000/svg" fill="none" viewBox="0 0 28 28">
  <path fill="currentColor"
    d="M16.357 15.844h-4.714C6.87 15.844 3 19.69 3 24.438 3 25.3 3.704 26 4.571 26H23.43c.867 0 1.571-.7 1.571-1.563 0-4.746-3.87-8.593-8.643-8.593ZM5.406 23.656c.388-3.08 3.035-5.468 6.237-5.468h4.714c3.2 0 5.849 2.39 6.237 5.468H5.406ZM14 13.5c3.471 0 6.286-2.798 6.286-6.25S17.47 1 14 1c-3.471 0-6.286 2.798-6.286 6.25S10.528 13.5 14 13.5Zm0-10.156c2.166 0 3.929 1.752 3.929 3.906S16.166 11.156 14 11.156s-3.929-1.753-3.929-3.906c0-2.154 1.763-3.906 3.929-3.906Z" />
</svg>