<svg width="58" height="38" viewBox="0 0 58 38" fill="none" xmlns="http://www.w3.org/2000/svg">
<rect x="0.5" y="0.5" width="57" height="37" rx="4.5" fill="white"/>
<rect x="0.5" y="0.5" width="57" height="37" rx="4.5" stroke="#D3D3D3"/>
<path d="M28.7864 12.2477L25.8463 25.7883H22.291L25.2316 12.2477H28.7864ZM43.7447 20.9909L45.6165 15.906L46.6935 20.9909H43.7447ZM47.7114 25.7883H51L48.1303 12.2477H45.0949C44.4128 12.2477 43.8373 12.6386 43.5811 13.2411L38.2472 25.7883H41.9808L42.722 23.7663H47.2834L47.7114 25.7883ZM38.4325 21.3672C38.4477 17.7934 33.4161 17.5967 33.4509 16.0002C33.4613 15.5138 33.9316 14.9978 34.9586 14.8654C35.4688 14.7998 36.8717 14.7497 38.4647 15.4718L39.0885 12.6004C38.2328 12.2944 37.1318 12 35.7625 12C32.2486 12 29.7752 13.8407 29.7543 16.4764C29.7321 18.4255 31.5199 19.5132 32.8671 20.1612C34.2522 20.8251 34.7176 21.2502 34.7115 21.8438C34.7024 22.7527 33.6066 23.153 32.5844 23.1689C30.7965 23.1967 29.7591 22.6936 28.9321 22.3139L28.2879 25.2809C29.1183 25.6567 30.6517 25.9833 32.2425 26C35.9769 26 38.4203 24.182 38.4325 21.3672ZM23.7061 12.2477L17.9458 25.7883H14.187L11.3526 14.982C11.1803 14.3164 11.0307 14.073 10.5074 13.7923C9.65348 13.3358 8.24192 12.9068 7 12.6411L7.08482 12.2477H13.1343C13.9052 12.2477 14.599 12.7534 14.7738 13.6281L16.2711 21.464L19.9708 12.2477H23.7061Z" fill="#005AB5"/>
</svg>
